<mxfile host="www.draw.io" modified="2020-01-01T16:16:40.613Z" agent="Mozilla/5.0 (X11; Ubuntu; Linux x86_64; rv:71.0) Gecko/20100101 Firefox/71.0" etag="V-s_mF7wkGUhlOMJmncv" version="12.4.8" type="github" pages="7">
  <diagram id="C5RBs43oDa-KdzZeNtuy" name="overview">
    <mxGraphModel dx="2889" dy="781" grid="1" gridSize="10" guides="1" tooltips="1" connect="1" arrows="1" fold="1" page="1" pageScale="1" pageWidth="827" pageHeight="1169" math="0" shadow="0">
      <root>
        <mxCell id="WIyWlLk6GJQsqaUBKTNV-0"/>
        <mxCell id="WIyWlLk6GJQsqaUBKTNV-1" parent="WIyWlLk6GJQsqaUBKTNV-0"/>
        <mxCell id="zkfFHV4jXpPFQw0GAbJ--51" value="account" style="swimlane;fontStyle=1;childLayout=stackLayout;horizontal=1;startSize=26;horizontalStack=0;resizeParent=1;resizeLast=0;collapsible=1;marginBottom=0;rounded=0;shadow=0;strokeWidth=1;fillColor=#dae8fc;strokeColor=#6c8ebf;" parent="WIyWlLk6GJQsqaUBKTNV-1" vertex="1">
          <mxGeometry x="150" y="260" width="160" height="78" as="geometry">
            <mxRectangle x="20" y="80" width="160" height="26" as="alternateBounds"/>
          </mxGeometry>
        </mxCell>
        <mxCell id="zkfFHV4jXpPFQw0GAbJ--52" value="account_id" style="shape=partialRectangle;top=0;left=0;right=0;bottom=1;align=left;verticalAlign=top;fillColor=none;spacingLeft=40;spacingRight=4;overflow=hidden;rotatable=0;points=[[0,0.5],[1,0.5]];portConstraint=eastwest;dropTarget=0;rounded=0;shadow=0;strokeWidth=1;fontStyle=4" parent="zkfFHV4jXpPFQw0GAbJ--51" vertex="1">
          <mxGeometry y="26" width="160" height="26" as="geometry"/>
        </mxCell>
        <mxCell id="zkfFHV4jXpPFQw0GAbJ--53" value="PK" style="shape=partialRectangle;top=0;left=0;bottom=0;fillColor=none;align=left;verticalAlign=top;spacingLeft=4;spacingRight=4;overflow=hidden;rotatable=0;points=[];portConstraint=eastwest;part=1;" parent="zkfFHV4jXpPFQw0GAbJ--52" vertex="1" connectable="0">
          <mxGeometry width="36" height="26" as="geometry"/>
        </mxCell>
        <mxCell id="zkfFHV4jXpPFQw0GAbJ--54" value="..." style="shape=partialRectangle;top=0;left=0;right=0;bottom=0;align=left;verticalAlign=top;fillColor=none;spacingLeft=40;spacingRight=4;overflow=hidden;rotatable=0;points=[[0,0.5],[1,0.5]];portConstraint=eastwest;dropTarget=0;rounded=0;shadow=0;strokeWidth=1;" parent="zkfFHV4jXpPFQw0GAbJ--51" vertex="1">
          <mxGeometry y="52" width="160" height="26" as="geometry"/>
        </mxCell>
        <mxCell id="zkfFHV4jXpPFQw0GAbJ--55" value="" style="shape=partialRectangle;top=0;left=0;bottom=0;fillColor=none;align=left;verticalAlign=top;spacingLeft=4;spacingRight=4;overflow=hidden;rotatable=0;points=[];portConstraint=eastwest;part=1;" parent="zkfFHV4jXpPFQw0GAbJ--54" vertex="1" connectable="0">
          <mxGeometry width="36" height="26" as="geometry"/>
        </mxCell>
        <mxCell id="zkfFHV4jXpPFQw0GAbJ--56" value="group" style="swimlane;fontStyle=1;childLayout=stackLayout;horizontal=1;startSize=26;horizontalStack=0;resizeParent=1;resizeLast=0;collapsible=1;marginBottom=0;rounded=0;shadow=0;strokeWidth=1;fillColor=#dae8fc;strokeColor=#6c8ebf;" parent="WIyWlLk6GJQsqaUBKTNV-1" vertex="1">
          <mxGeometry x="160" y="390" width="160" height="78" as="geometry">
            <mxRectangle x="260" y="80" width="160" height="26" as="alternateBounds"/>
          </mxGeometry>
        </mxCell>
        <mxCell id="zkfFHV4jXpPFQw0GAbJ--57" value="group_id" style="shape=partialRectangle;top=0;left=0;right=0;bottom=1;align=left;verticalAlign=top;fillColor=none;spacingLeft=40;spacingRight=4;overflow=hidden;rotatable=0;points=[[0,0.5],[1,0.5]];portConstraint=eastwest;dropTarget=0;rounded=0;shadow=0;strokeWidth=1;fontStyle=4" parent="zkfFHV4jXpPFQw0GAbJ--56" vertex="1">
          <mxGeometry y="26" width="160" height="26" as="geometry"/>
        </mxCell>
        <mxCell id="zkfFHV4jXpPFQw0GAbJ--58" value="PK" style="shape=partialRectangle;top=0;left=0;bottom=0;fillColor=none;align=left;verticalAlign=top;spacingLeft=4;spacingRight=4;overflow=hidden;rotatable=0;points=[];portConstraint=eastwest;part=1;" parent="zkfFHV4jXpPFQw0GAbJ--57" vertex="1" connectable="0">
          <mxGeometry width="36" height="26" as="geometry"/>
        </mxCell>
        <mxCell id="zkfFHV4jXpPFQw0GAbJ--61" value="..." style="shape=partialRectangle;top=0;left=0;right=0;bottom=0;align=left;verticalAlign=top;fillColor=none;spacingLeft=40;spacingRight=4;overflow=hidden;rotatable=0;points=[[0,0.5],[1,0.5]];portConstraint=eastwest;dropTarget=0;rounded=0;shadow=0;strokeWidth=1;" parent="zkfFHV4jXpPFQw0GAbJ--56" vertex="1">
          <mxGeometry y="52" width="160" height="26" as="geometry"/>
        </mxCell>
        <mxCell id="zkfFHV4jXpPFQw0GAbJ--62" value="" style="shape=partialRectangle;top=0;left=0;bottom=0;fillColor=none;align=left;verticalAlign=top;spacingLeft=4;spacingRight=4;overflow=hidden;rotatable=0;points=[];portConstraint=eastwest;part=1;" parent="zkfFHV4jXpPFQw0GAbJ--61" vertex="1" connectable="0">
          <mxGeometry width="36" height="26" as="geometry"/>
        </mxCell>
        <mxCell id="zkfFHV4jXpPFQw0GAbJ--64" value="profile_account" style="swimlane;fontStyle=1;childLayout=stackLayout;horizontal=1;startSize=26;horizontalStack=0;resizeParent=1;resizeLast=0;collapsible=1;marginBottom=0;rounded=0;shadow=0;strokeWidth=1;fillColor=#f8cecc;strokeColor=#b85450;" parent="WIyWlLk6GJQsqaUBKTNV-1" vertex="1">
          <mxGeometry x="-420" y="234" width="200" height="104" as="geometry">
            <mxRectangle x="260" y="270" width="160" height="26" as="alternateBounds"/>
          </mxGeometry>
        </mxCell>
        <mxCell id="zkfFHV4jXpPFQw0GAbJ--65" value="profile_account_id" style="shape=partialRectangle;top=0;left=0;right=0;bottom=1;align=left;verticalAlign=top;fillColor=none;spacingLeft=40;spacingRight=4;overflow=hidden;rotatable=0;points=[[0,0.5],[1,0.5]];portConstraint=eastwest;dropTarget=0;rounded=0;shadow=0;strokeWidth=1;fontStyle=4" parent="zkfFHV4jXpPFQw0GAbJ--64" vertex="1">
          <mxGeometry y="26" width="200" height="26" as="geometry"/>
        </mxCell>
        <mxCell id="zkfFHV4jXpPFQw0GAbJ--66" value="PK" style="shape=partialRectangle;top=0;left=0;bottom=0;fillColor=none;align=left;verticalAlign=top;spacingLeft=4;spacingRight=4;overflow=hidden;rotatable=0;points=[];portConstraint=eastwest;part=1;" parent="zkfFHV4jXpPFQw0GAbJ--65" vertex="1" connectable="0">
          <mxGeometry width="36" height="26" as="geometry"/>
        </mxCell>
        <mxCell id="zkfFHV4jXpPFQw0GAbJ--67" value="profile_account_account" style="shape=partialRectangle;top=0;left=0;right=0;bottom=0;align=left;verticalAlign=top;fillColor=none;spacingLeft=40;spacingRight=4;overflow=hidden;rotatable=0;points=[[0,0.5],[1,0.5]];portConstraint=eastwest;dropTarget=0;rounded=0;shadow=0;strokeWidth=1;" parent="zkfFHV4jXpPFQw0GAbJ--64" vertex="1">
          <mxGeometry y="52" width="200" height="26" as="geometry"/>
        </mxCell>
        <mxCell id="zkfFHV4jXpPFQw0GAbJ--68" value="FK1" style="shape=partialRectangle;top=0;left=0;bottom=0;fillColor=none;align=left;verticalAlign=top;spacingLeft=4;spacingRight=4;overflow=hidden;rotatable=0;points=[];portConstraint=eastwest;part=1;" parent="zkfFHV4jXpPFQw0GAbJ--67" vertex="1" connectable="0">
          <mxGeometry width="36" height="26" as="geometry"/>
        </mxCell>
        <mxCell id="zkfFHV4jXpPFQw0GAbJ--69" value="..." style="shape=partialRectangle;top=0;left=0;right=0;bottom=0;align=left;verticalAlign=top;fillColor=none;spacingLeft=40;spacingRight=4;overflow=hidden;rotatable=0;points=[[0,0.5],[1,0.5]];portConstraint=eastwest;dropTarget=0;rounded=0;shadow=0;strokeWidth=1;" parent="zkfFHV4jXpPFQw0GAbJ--64" vertex="1">
          <mxGeometry y="78" width="200" height="26" as="geometry"/>
        </mxCell>
        <mxCell id="zkfFHV4jXpPFQw0GAbJ--70" value="" style="shape=partialRectangle;top=0;left=0;bottom=0;fillColor=none;align=left;verticalAlign=top;spacingLeft=4;spacingRight=4;overflow=hidden;rotatable=0;points=[];portConstraint=eastwest;part=1;" parent="zkfFHV4jXpPFQw0GAbJ--69" vertex="1" connectable="0">
          <mxGeometry width="36" height="26" as="geometry"/>
        </mxCell>
        <mxCell id="L3K0jDCQB_C3OE6Yni0E-7" value="language" style="swimlane;fontStyle=1;childLayout=stackLayout;horizontal=1;startSize=26;horizontalStack=0;resizeParent=1;resizeLast=0;collapsible=1;marginBottom=0;rounded=0;shadow=0;strokeWidth=1;fillColor=#dae8fc;strokeColor=#6c8ebf;" parent="WIyWlLk6GJQsqaUBKTNV-1" vertex="1">
          <mxGeometry x="-120" y="111" width="160" height="104" as="geometry">
            <mxRectangle x="260" y="80" width="160" height="26" as="alternateBounds"/>
          </mxGeometry>
        </mxCell>
        <mxCell id="L3K0jDCQB_C3OE6Yni0E-8" value="language_id" style="shape=partialRectangle;top=0;left=0;right=0;bottom=1;align=left;verticalAlign=top;fillColor=none;spacingLeft=40;spacingRight=4;overflow=hidden;rotatable=0;points=[[0,0.5],[1,0.5]];portConstraint=eastwest;dropTarget=0;rounded=0;shadow=0;strokeWidth=1;fontStyle=4" parent="L3K0jDCQB_C3OE6Yni0E-7" vertex="1">
          <mxGeometry y="26" width="160" height="26" as="geometry"/>
        </mxCell>
        <mxCell id="L3K0jDCQB_C3OE6Yni0E-9" value="PK" style="shape=partialRectangle;top=0;left=0;bottom=0;fillColor=none;align=left;verticalAlign=top;spacingLeft=4;spacingRight=4;overflow=hidden;rotatable=0;points=[];portConstraint=eastwest;part=1;" parent="L3K0jDCQB_C3OE6Yni0E-8" vertex="1" connectable="0">
          <mxGeometry width="36" height="26" as="geometry"/>
        </mxCell>
        <mxCell id="L3K0jDCQB_C3OE6Yni0E-10" value="CustomerId" style="shape=partialRectangle;top=0;left=0;right=0;bottom=0;align=left;verticalAlign=top;fillColor=none;spacingLeft=40;spacingRight=4;overflow=hidden;rotatable=0;points=[[0,0.5],[1,0.5]];portConstraint=eastwest;dropTarget=0;rounded=0;shadow=0;strokeWidth=1;" parent="L3K0jDCQB_C3OE6Yni0E-7" vertex="1">
          <mxGeometry y="52" width="160" height="26" as="geometry"/>
        </mxCell>
        <mxCell id="L3K0jDCQB_C3OE6Yni0E-11" value="FK1" style="shape=partialRectangle;top=0;left=0;bottom=0;fillColor=none;align=left;verticalAlign=top;spacingLeft=4;spacingRight=4;overflow=hidden;rotatable=0;points=[];portConstraint=eastwest;part=1;" parent="L3K0jDCQB_C3OE6Yni0E-10" vertex="1" connectable="0">
          <mxGeometry width="36" height="26" as="geometry"/>
        </mxCell>
        <mxCell id="L3K0jDCQB_C3OE6Yni0E-12" value="..." style="shape=partialRectangle;top=0;left=0;right=0;bottom=0;align=left;verticalAlign=top;fillColor=none;spacingLeft=40;spacingRight=4;overflow=hidden;rotatable=0;points=[[0,0.5],[1,0.5]];portConstraint=eastwest;dropTarget=0;rounded=0;shadow=0;strokeWidth=1;" parent="L3K0jDCQB_C3OE6Yni0E-7" vertex="1">
          <mxGeometry y="78" width="160" height="26" as="geometry"/>
        </mxCell>
        <mxCell id="L3K0jDCQB_C3OE6Yni0E-13" value="" style="shape=partialRectangle;top=0;left=0;bottom=0;fillColor=none;align=left;verticalAlign=top;spacingLeft=4;spacingRight=4;overflow=hidden;rotatable=0;points=[];portConstraint=eastwest;part=1;" parent="L3K0jDCQB_C3OE6Yni0E-12" vertex="1" connectable="0">
          <mxGeometry width="36" height="26" as="geometry"/>
        </mxCell>
        <mxCell id="L3K0jDCQB_C3OE6Yni0E-42" value="module" style="swimlane;fontStyle=1;childLayout=stackLayout;horizontal=1;startSize=26;horizontalStack=0;resizeParent=1;resizeLast=0;collapsible=1;marginBottom=0;rounded=0;shadow=0;strokeWidth=1;fillColor=#fff2cc;strokeColor=#d6b656;" parent="WIyWlLk6GJQsqaUBKTNV-1" vertex="1">
          <mxGeometry x="-380" y="410" width="160" height="80" as="geometry">
            <mxRectangle x="260" y="80" width="160" height="26" as="alternateBounds"/>
          </mxGeometry>
        </mxCell>
        <mxCell id="L3K0jDCQB_C3OE6Yni0E-43" value="module_id" style="shape=partialRectangle;top=0;left=0;right=0;bottom=1;align=left;verticalAlign=top;fillColor=none;spacingLeft=40;spacingRight=4;overflow=hidden;rotatable=0;points=[[0,0.5],[1,0.5]];portConstraint=eastwest;dropTarget=0;rounded=0;shadow=0;strokeWidth=1;fontStyle=4" parent="L3K0jDCQB_C3OE6Yni0E-42" vertex="1">
          <mxGeometry y="26" width="160" height="26" as="geometry"/>
        </mxCell>
        <mxCell id="L3K0jDCQB_C3OE6Yni0E-44" value="PK" style="shape=partialRectangle;top=0;left=0;bottom=0;fillColor=none;align=left;verticalAlign=top;spacingLeft=4;spacingRight=4;overflow=hidden;rotatable=0;points=[];portConstraint=eastwest;part=1;" parent="L3K0jDCQB_C3OE6Yni0E-43" vertex="1" connectable="0">
          <mxGeometry width="36" height="26" as="geometry"/>
        </mxCell>
        <mxCell id="L3K0jDCQB_C3OE6Yni0E-45" value="..." style="shape=partialRectangle;top=0;left=0;right=0;bottom=0;align=left;verticalAlign=top;fillColor=none;spacingLeft=40;spacingRight=4;overflow=hidden;rotatable=0;points=[[0,0.5],[1,0.5]];portConstraint=eastwest;dropTarget=0;rounded=0;shadow=0;strokeWidth=1;" parent="L3K0jDCQB_C3OE6Yni0E-42" vertex="1">
          <mxGeometry y="52" width="160" height="28" as="geometry"/>
        </mxCell>
        <mxCell id="L3K0jDCQB_C3OE6Yni0E-46" value="" style="shape=partialRectangle;top=0;left=0;bottom=0;fillColor=none;align=left;verticalAlign=top;spacingLeft=4;spacingRight=4;overflow=hidden;rotatable=0;points=[];portConstraint=eastwest;part=1;" parent="L3K0jDCQB_C3OE6Yni0E-45" vertex="1" connectable="0">
          <mxGeometry width="36" height="28" as="geometry"/>
        </mxCell>
        <mxCell id="L3K0jDCQB_C3OE6Yni0E-49" value="l11n" style="swimlane;fontStyle=1;childLayout=stackLayout;horizontal=1;startSize=26;horizontalStack=0;resizeParent=1;resizeLast=0;collapsible=1;marginBottom=0;rounded=0;shadow=0;strokeWidth=1;fillColor=#dae8fc;strokeColor=#6c8ebf;" parent="WIyWlLk6GJQsqaUBKTNV-1" vertex="1">
          <mxGeometry x="-190" y="310" width="160" height="104" as="geometry">
            <mxRectangle x="260" y="80" width="160" height="26" as="alternateBounds"/>
          </mxGeometry>
        </mxCell>
        <mxCell id="L3K0jDCQB_C3OE6Yni0E-50" value="l11n_id" style="shape=partialRectangle;top=0;left=0;right=0;bottom=1;align=left;verticalAlign=top;fillColor=none;spacingLeft=40;spacingRight=4;overflow=hidden;rotatable=0;points=[[0,0.5],[1,0.5]];portConstraint=eastwest;dropTarget=0;rounded=0;shadow=0;strokeWidth=1;fontStyle=4" parent="L3K0jDCQB_C3OE6Yni0E-49" vertex="1">
          <mxGeometry y="26" width="160" height="26" as="geometry"/>
        </mxCell>
        <mxCell id="L3K0jDCQB_C3OE6Yni0E-51" value="PK" style="shape=partialRectangle;top=0;left=0;bottom=0;fillColor=none;align=left;verticalAlign=top;spacingLeft=4;spacingRight=4;overflow=hidden;rotatable=0;points=[];portConstraint=eastwest;part=1;" parent="L3K0jDCQB_C3OE6Yni0E-50" vertex="1" connectable="0">
          <mxGeometry width="36" height="26" as="geometry"/>
        </mxCell>
        <mxCell id="L3K0jDCQB_C3OE6Yni0E-52" value="l11n_account" style="shape=partialRectangle;top=0;left=0;right=0;bottom=0;align=left;verticalAlign=top;fillColor=none;spacingLeft=40;spacingRight=4;overflow=hidden;rotatable=0;points=[[0,0.5],[1,0.5]];portConstraint=eastwest;dropTarget=0;rounded=0;shadow=0;strokeWidth=1;" parent="L3K0jDCQB_C3OE6Yni0E-49" vertex="1">
          <mxGeometry y="52" width="160" height="26" as="geometry"/>
        </mxCell>
        <mxCell id="L3K0jDCQB_C3OE6Yni0E-53" value="FK1" style="shape=partialRectangle;top=0;left=0;bottom=0;fillColor=none;align=left;verticalAlign=top;spacingLeft=4;spacingRight=4;overflow=hidden;rotatable=0;points=[];portConstraint=eastwest;part=1;" parent="L3K0jDCQB_C3OE6Yni0E-52" vertex="1" connectable="0">
          <mxGeometry width="36" height="26" as="geometry"/>
        </mxCell>
        <mxCell id="L3K0jDCQB_C3OE6Yni0E-54" value="..." style="shape=partialRectangle;top=0;left=0;right=0;bottom=0;align=left;verticalAlign=top;fillColor=none;spacingLeft=40;spacingRight=4;overflow=hidden;rotatable=0;points=[[0,0.5],[1,0.5]];portConstraint=eastwest;dropTarget=0;rounded=0;shadow=0;strokeWidth=1;" parent="L3K0jDCQB_C3OE6Yni0E-49" vertex="1">
          <mxGeometry y="78" width="160" height="26" as="geometry"/>
        </mxCell>
        <mxCell id="L3K0jDCQB_C3OE6Yni0E-55" value="" style="shape=partialRectangle;top=0;left=0;bottom=0;fillColor=none;align=left;verticalAlign=top;spacingLeft=4;spacingRight=4;overflow=hidden;rotatable=0;points=[];portConstraint=eastwest;part=1;" parent="L3K0jDCQB_C3OE6Yni0E-54" vertex="1" connectable="0">
          <mxGeometry width="36" height="26" as="geometry"/>
        </mxCell>
        <mxCell id="L3K0jDCQB_C3OE6Yni0E-56" value="account_permission" style="swimlane;fontStyle=1;childLayout=stackLayout;horizontal=1;startSize=26;horizontalStack=0;resizeParent=1;resizeLast=0;collapsible=1;marginBottom=0;rounded=0;shadow=0;strokeWidth=1;fillColor=#dae8fc;strokeColor=#6c8ebf;" parent="WIyWlLk6GJQsqaUBKTNV-1" vertex="1">
          <mxGeometry x="90" y="111" width="240" height="104" as="geometry">
            <mxRectangle x="20" y="80" width="160" height="26" as="alternateBounds"/>
          </mxGeometry>
        </mxCell>
        <mxCell id="L3K0jDCQB_C3OE6Yni0E-57" value="account_permission_id" style="shape=partialRectangle;top=0;left=0;right=0;bottom=1;align=left;verticalAlign=top;fillColor=none;spacingLeft=40;spacingRight=4;overflow=hidden;rotatable=0;points=[[0,0.5],[1,0.5]];portConstraint=eastwest;dropTarget=0;rounded=0;shadow=0;strokeWidth=1;fontStyle=4" parent="L3K0jDCQB_C3OE6Yni0E-56" vertex="1">
          <mxGeometry y="26" width="240" height="26" as="geometry"/>
        </mxCell>
        <mxCell id="L3K0jDCQB_C3OE6Yni0E-58" value="PK" style="shape=partialRectangle;top=0;left=0;bottom=0;fillColor=none;align=left;verticalAlign=top;spacingLeft=4;spacingRight=4;overflow=hidden;rotatable=0;points=[];portConstraint=eastwest;part=1;" parent="L3K0jDCQB_C3OE6Yni0E-57" vertex="1" connectable="0">
          <mxGeometry width="36" height="26" as="geometry"/>
        </mxCell>
        <mxCell id="8I4-JKD9G43_piyjU0ks-41" value="account_permission_account" style="shape=partialRectangle;top=0;left=0;right=0;bottom=0;align=left;verticalAlign=top;fillColor=none;spacingLeft=40;spacingRight=4;overflow=hidden;rotatable=0;points=[[0,0.5],[1,0.5]];portConstraint=eastwest;dropTarget=0;rounded=0;shadow=0;strokeWidth=1;" parent="L3K0jDCQB_C3OE6Yni0E-56" vertex="1">
          <mxGeometry y="52" width="240" height="26" as="geometry"/>
        </mxCell>
        <mxCell id="8I4-JKD9G43_piyjU0ks-42" value="FK1" style="shape=partialRectangle;top=0;left=0;bottom=0;fillColor=none;align=left;verticalAlign=top;spacingLeft=4;spacingRight=4;overflow=hidden;rotatable=0;points=[];portConstraint=eastwest;part=1;" parent="8I4-JKD9G43_piyjU0ks-41" vertex="1" connectable="0">
          <mxGeometry width="36" height="26" as="geometry"/>
        </mxCell>
        <mxCell id="L3K0jDCQB_C3OE6Yni0E-59" value="..." style="shape=partialRectangle;top=0;left=0;right=0;bottom=0;align=left;verticalAlign=top;fillColor=none;spacingLeft=40;spacingRight=4;overflow=hidden;rotatable=0;points=[[0,0.5],[1,0.5]];portConstraint=eastwest;dropTarget=0;rounded=0;shadow=0;strokeWidth=1;" parent="L3K0jDCQB_C3OE6Yni0E-56" vertex="1">
          <mxGeometry y="78" width="240" height="26" as="geometry"/>
        </mxCell>
        <mxCell id="L3K0jDCQB_C3OE6Yni0E-60" value="" style="shape=partialRectangle;top=0;left=0;bottom=0;fillColor=none;align=left;verticalAlign=top;spacingLeft=4;spacingRight=4;overflow=hidden;rotatable=0;points=[];portConstraint=eastwest;part=1;" parent="L3K0jDCQB_C3OE6Yni0E-59" vertex="1" connectable="0">
          <mxGeometry width="36" height="26" as="geometry"/>
        </mxCell>
        <mxCell id="L3K0jDCQB_C3OE6Yni0E-68" value="module_load" style="swimlane;fontStyle=1;childLayout=stackLayout;horizontal=1;startSize=26;horizontalStack=0;resizeParent=1;resizeLast=0;collapsible=1;marginBottom=0;rounded=0;shadow=0;strokeWidth=1;fillColor=#fff2cc;strokeColor=#d6b656;" parent="WIyWlLk6GJQsqaUBKTNV-1" vertex="1">
          <mxGeometry x="-390" y="514" width="170" height="104" as="geometry">
            <mxRectangle x="260" y="80" width="160" height="26" as="alternateBounds"/>
          </mxGeometry>
        </mxCell>
        <mxCell id="L3K0jDCQB_C3OE6Yni0E-69" value="module_load_id" style="shape=partialRectangle;top=0;left=0;right=0;bottom=1;align=left;verticalAlign=top;fillColor=none;spacingLeft=40;spacingRight=4;overflow=hidden;rotatable=0;points=[[0,0.5],[1,0.5]];portConstraint=eastwest;dropTarget=0;rounded=0;shadow=0;strokeWidth=1;fontStyle=4" parent="L3K0jDCQB_C3OE6Yni0E-68" vertex="1">
          <mxGeometry y="26" width="170" height="26" as="geometry"/>
        </mxCell>
        <mxCell id="L3K0jDCQB_C3OE6Yni0E-70" value="PK" style="shape=partialRectangle;top=0;left=0;bottom=0;fillColor=none;align=left;verticalAlign=top;spacingLeft=4;spacingRight=4;overflow=hidden;rotatable=0;points=[];portConstraint=eastwest;part=1;" parent="L3K0jDCQB_C3OE6Yni0E-69" vertex="1" connectable="0">
          <mxGeometry width="36" height="26" as="geometry"/>
        </mxCell>
        <mxCell id="L3K0jDCQB_C3OE6Yni0E-71" value="module_load_from" style="shape=partialRectangle;top=0;left=0;right=0;bottom=0;align=left;verticalAlign=top;fillColor=none;spacingLeft=40;spacingRight=4;overflow=hidden;rotatable=0;points=[[0,0.5],[1,0.5]];portConstraint=eastwest;dropTarget=0;rounded=0;shadow=0;strokeWidth=1;" parent="L3K0jDCQB_C3OE6Yni0E-68" vertex="1">
          <mxGeometry y="52" width="170" height="26" as="geometry"/>
        </mxCell>
        <mxCell id="L3K0jDCQB_C3OE6Yni0E-72" value="FK1" style="shape=partialRectangle;top=0;left=0;bottom=0;fillColor=none;align=left;verticalAlign=top;spacingLeft=4;spacingRight=4;overflow=hidden;rotatable=0;points=[];portConstraint=eastwest;part=1;" parent="L3K0jDCQB_C3OE6Yni0E-71" vertex="1" connectable="0">
          <mxGeometry width="36" height="26" as="geometry"/>
        </mxCell>
        <mxCell id="L3K0jDCQB_C3OE6Yni0E-73" value="..." style="shape=partialRectangle;top=0;left=0;right=0;bottom=0;align=left;verticalAlign=top;fillColor=none;spacingLeft=40;spacingRight=4;overflow=hidden;rotatable=0;points=[[0,0.5],[1,0.5]];portConstraint=eastwest;dropTarget=0;rounded=0;shadow=0;strokeWidth=1;" parent="L3K0jDCQB_C3OE6Yni0E-68" vertex="1">
          <mxGeometry y="78" width="170" height="26" as="geometry"/>
        </mxCell>
        <mxCell id="L3K0jDCQB_C3OE6Yni0E-74" value="" style="shape=partialRectangle;top=0;left=0;bottom=0;fillColor=none;align=left;verticalAlign=top;spacingLeft=4;spacingRight=4;overflow=hidden;rotatable=0;points=[];portConstraint=eastwest;part=1;" parent="L3K0jDCQB_C3OE6Yni0E-73" vertex="1" connectable="0">
          <mxGeometry width="36" height="26" as="geometry"/>
        </mxCell>
        <mxCell id="L3K0jDCQB_C3OE6Yni0E-75" value="country" style="swimlane;fontStyle=1;childLayout=stackLayout;horizontal=1;startSize=26;horizontalStack=0;resizeParent=1;resizeLast=0;collapsible=1;marginBottom=0;rounded=0;shadow=0;strokeWidth=1;fillColor=#e1d5e7;strokeColor=#9673a6;labelBackgroundColor=none;" parent="WIyWlLk6GJQsqaUBKTNV-1" vertex="1">
          <mxGeometry x="-500" y="111" width="160" height="80" as="geometry">
            <mxRectangle x="260" y="80" width="160" height="26" as="alternateBounds"/>
          </mxGeometry>
        </mxCell>
        <mxCell id="L3K0jDCQB_C3OE6Yni0E-76" value="country_id" style="shape=partialRectangle;top=0;left=0;right=0;bottom=1;align=left;verticalAlign=top;fillColor=none;spacingLeft=40;spacingRight=4;overflow=hidden;rotatable=0;points=[[0,0.5],[1,0.5]];portConstraint=eastwest;dropTarget=0;rounded=0;shadow=0;strokeWidth=1;fontStyle=4" parent="L3K0jDCQB_C3OE6Yni0E-75" vertex="1">
          <mxGeometry y="26" width="160" height="26" as="geometry"/>
        </mxCell>
        <mxCell id="L3K0jDCQB_C3OE6Yni0E-77" value="PK" style="shape=partialRectangle;top=0;left=0;bottom=0;fillColor=none;align=left;verticalAlign=top;spacingLeft=4;spacingRight=4;overflow=hidden;rotatable=0;points=[];portConstraint=eastwest;part=1;" parent="L3K0jDCQB_C3OE6Yni0E-76" vertex="1" connectable="0">
          <mxGeometry width="36" height="26" as="geometry"/>
        </mxCell>
        <mxCell id="L3K0jDCQB_C3OE6Yni0E-78" value="..." style="shape=partialRectangle;top=0;left=0;right=0;bottom=0;align=left;verticalAlign=top;fillColor=none;spacingLeft=40;spacingRight=4;overflow=hidden;rotatable=0;points=[[0,0.5],[1,0.5]];portConstraint=eastwest;dropTarget=0;rounded=0;shadow=0;strokeWidth=1;" parent="L3K0jDCQB_C3OE6Yni0E-75" vertex="1">
          <mxGeometry y="52" width="160" height="28" as="geometry"/>
        </mxCell>
        <mxCell id="L3K0jDCQB_C3OE6Yni0E-79" value="" style="shape=partialRectangle;top=0;left=0;bottom=0;fillColor=none;align=left;verticalAlign=top;spacingLeft=4;spacingRight=4;overflow=hidden;rotatable=0;points=[];portConstraint=eastwest;part=1;" parent="L3K0jDCQB_C3OE6Yni0E-78" vertex="1" connectable="0">
          <mxGeometry width="36" height="28" as="geometry"/>
        </mxCell>
        <mxCell id="L3K0jDCQB_C3OE6Yni0E-82" value="address" style="swimlane;fontStyle=1;childLayout=stackLayout;horizontal=1;startSize=26;horizontalStack=0;resizeParent=1;resizeLast=0;collapsible=1;marginBottom=0;rounded=0;shadow=0;strokeWidth=1;fillColor=#e1d5e7;strokeColor=#9673a6;" parent="WIyWlLk6GJQsqaUBKTNV-1" vertex="1">
          <mxGeometry x="-295" y="112" width="150" height="104" as="geometry">
            <mxRectangle x="260" y="80" width="160" height="26" as="alternateBounds"/>
          </mxGeometry>
        </mxCell>
        <mxCell id="L3K0jDCQB_C3OE6Yni0E-83" value="address_id" style="shape=partialRectangle;top=0;left=0;right=0;bottom=1;align=left;verticalAlign=top;fillColor=none;spacingLeft=40;spacingRight=4;overflow=hidden;rotatable=0;points=[[0,0.5],[1,0.5]];portConstraint=eastwest;dropTarget=0;rounded=0;shadow=0;strokeWidth=1;fontStyle=4" parent="L3K0jDCQB_C3OE6Yni0E-82" vertex="1">
          <mxGeometry y="26" width="150" height="26" as="geometry"/>
        </mxCell>
        <mxCell id="L3K0jDCQB_C3OE6Yni0E-84" value="PK" style="shape=partialRectangle;top=0;left=0;bottom=0;fillColor=none;align=left;verticalAlign=top;spacingLeft=4;spacingRight=4;overflow=hidden;rotatable=0;points=[];portConstraint=eastwest;part=1;" parent="L3K0jDCQB_C3OE6Yni0E-83" vertex="1" connectable="0">
          <mxGeometry width="36" height="26" as="geometry"/>
        </mxCell>
        <mxCell id="L3K0jDCQB_C3OE6Yni0E-85" value="address_country" style="shape=partialRectangle;top=0;left=0;right=0;bottom=0;align=left;verticalAlign=top;fillColor=none;spacingLeft=40;spacingRight=4;overflow=hidden;rotatable=0;points=[[0,0.5],[1,0.5]];portConstraint=eastwest;dropTarget=0;rounded=0;shadow=0;strokeWidth=1;" parent="L3K0jDCQB_C3OE6Yni0E-82" vertex="1">
          <mxGeometry y="52" width="150" height="26" as="geometry"/>
        </mxCell>
        <mxCell id="L3K0jDCQB_C3OE6Yni0E-86" value="FK1" style="shape=partialRectangle;top=0;left=0;bottom=0;fillColor=none;align=left;verticalAlign=top;spacingLeft=4;spacingRight=4;overflow=hidden;rotatable=0;points=[];portConstraint=eastwest;part=1;" parent="L3K0jDCQB_C3OE6Yni0E-85" vertex="1" connectable="0">
          <mxGeometry width="36" height="26" as="geometry"/>
        </mxCell>
        <mxCell id="L3K0jDCQB_C3OE6Yni0E-87" value="..." style="shape=partialRectangle;top=0;left=0;right=0;bottom=0;align=left;verticalAlign=top;fillColor=none;spacingLeft=40;spacingRight=4;overflow=hidden;rotatable=0;points=[[0,0.5],[1,0.5]];portConstraint=eastwest;dropTarget=0;rounded=0;shadow=0;strokeWidth=1;" parent="L3K0jDCQB_C3OE6Yni0E-82" vertex="1">
          <mxGeometry y="78" width="150" height="26" as="geometry"/>
        </mxCell>
        <mxCell id="L3K0jDCQB_C3OE6Yni0E-88" value="" style="shape=partialRectangle;top=0;left=0;bottom=0;fillColor=none;align=left;verticalAlign=top;spacingLeft=4;spacingRight=4;overflow=hidden;rotatable=0;points=[];portConstraint=eastwest;part=1;" parent="L3K0jDCQB_C3OE6Yni0E-87" vertex="1" connectable="0">
          <mxGeometry width="36" height="26" as="geometry"/>
        </mxCell>
        <mxCell id="L3K0jDCQB_C3OE6Yni0E-104" value="" style="edgeStyle=orthogonalEdgeStyle;fontSize=12;html=1;endArrow=ERoneToMany;startArrow=ERmandOne;entryX=1;entryY=0.5;entryDx=0;entryDy=0;exitX=0;exitY=0.5;exitDx=0;exitDy=0;" parent="WIyWlLk6GJQsqaUBKTNV-1" source="zkfFHV4jXpPFQw0GAbJ--52" target="zkfFHV4jXpPFQw0GAbJ--67" edge="1">
          <mxGeometry width="100" height="100" relative="1" as="geometry">
            <mxPoint x="-50" y="570" as="sourcePoint"/>
            <mxPoint x="50" y="470" as="targetPoint"/>
          </mxGeometry>
        </mxCell>
        <mxCell id="8I4-JKD9G43_piyjU0ks-0" value="account_group" style="swimlane;fontStyle=1;childLayout=stackLayout;horizontal=1;startSize=26;horizontalStack=0;resizeParent=1;resizeLast=0;collapsible=1;marginBottom=0;rounded=0;shadow=0;strokeWidth=1;fillColor=#dae8fc;strokeColor=#6c8ebf;" parent="WIyWlLk6GJQsqaUBKTNV-1" vertex="1">
          <mxGeometry x="360" y="286" width="190" height="104" as="geometry">
            <mxRectangle x="20" y="80" width="160" height="26" as="alternateBounds"/>
          </mxGeometry>
        </mxCell>
        <mxCell id="8I4-JKD9G43_piyjU0ks-1" value="account_id" style="shape=partialRectangle;top=0;left=0;right=0;bottom=1;align=left;verticalAlign=top;fillColor=none;spacingLeft=40;spacingRight=4;overflow=hidden;rotatable=0;points=[[0,0.5],[1,0.5]];portConstraint=eastwest;dropTarget=0;rounded=0;shadow=0;strokeWidth=1;fontStyle=4" parent="8I4-JKD9G43_piyjU0ks-0" vertex="1">
          <mxGeometry y="26" width="190" height="26" as="geometry"/>
        </mxCell>
        <mxCell id="8I4-JKD9G43_piyjU0ks-2" value="PK" style="shape=partialRectangle;top=0;left=0;bottom=0;fillColor=none;align=left;verticalAlign=top;spacingLeft=4;spacingRight=4;overflow=hidden;rotatable=0;points=[];portConstraint=eastwest;part=1;" parent="8I4-JKD9G43_piyjU0ks-1" vertex="1" connectable="0">
          <mxGeometry width="36" height="26" as="geometry"/>
        </mxCell>
        <mxCell id="8I4-JKD9G43_piyjU0ks-3" value="account_group_account" style="shape=partialRectangle;top=0;left=0;right=0;bottom=0;align=left;verticalAlign=top;fillColor=none;spacingLeft=40;spacingRight=4;overflow=hidden;rotatable=0;points=[[0,0.5],[1,0.5]];portConstraint=eastwest;dropTarget=0;rounded=0;shadow=0;strokeWidth=1;" parent="8I4-JKD9G43_piyjU0ks-0" vertex="1">
          <mxGeometry y="52" width="190" height="26" as="geometry"/>
        </mxCell>
        <mxCell id="8I4-JKD9G43_piyjU0ks-4" value="FK1" style="shape=partialRectangle;top=0;left=0;bottom=0;fillColor=none;align=left;verticalAlign=top;spacingLeft=4;spacingRight=4;overflow=hidden;rotatable=0;points=[];portConstraint=eastwest;part=1;" parent="8I4-JKD9G43_piyjU0ks-3" vertex="1" connectable="0">
          <mxGeometry width="36" height="26" as="geometry"/>
        </mxCell>
        <mxCell id="8I4-JKD9G43_piyjU0ks-7" value="account_group_group" style="shape=partialRectangle;top=0;left=0;right=0;bottom=0;align=left;verticalAlign=top;fillColor=none;spacingLeft=40;spacingRight=4;overflow=hidden;rotatable=0;points=[[0,0.5],[1,0.5]];portConstraint=eastwest;dropTarget=0;rounded=0;shadow=0;strokeWidth=1;" parent="8I4-JKD9G43_piyjU0ks-0" vertex="1">
          <mxGeometry y="78" width="190" height="26" as="geometry"/>
        </mxCell>
        <mxCell id="8I4-JKD9G43_piyjU0ks-8" value="FK2" style="shape=partialRectangle;top=0;left=0;bottom=0;fillColor=none;align=left;verticalAlign=top;spacingLeft=4;spacingRight=4;overflow=hidden;rotatable=0;points=[];portConstraint=eastwest;part=1;" parent="8I4-JKD9G43_piyjU0ks-7" vertex="1" connectable="0">
          <mxGeometry width="36" height="26" as="geometry"/>
        </mxCell>
        <mxCell id="8I4-JKD9G43_piyjU0ks-9" value="" style="edgeStyle=orthogonalEdgeStyle;fontSize=12;html=1;endArrow=ERmandOne;startArrow=ERmandOne;entryX=0;entryY=0.5;entryDx=0;entryDy=0;exitX=1;exitY=0.5;exitDx=0;exitDy=0;" parent="WIyWlLk6GJQsqaUBKTNV-1" source="zkfFHV4jXpPFQw0GAbJ--51" target="8I4-JKD9G43_piyjU0ks-3" edge="1">
          <mxGeometry width="100" height="100" relative="1" as="geometry">
            <mxPoint x="-140" y="760" as="sourcePoint"/>
            <mxPoint x="-40" y="660" as="targetPoint"/>
          </mxGeometry>
        </mxCell>
        <mxCell id="8I4-JKD9G43_piyjU0ks-11" value="" style="edgeStyle=orthogonalEdgeStyle;fontSize=12;html=1;endArrow=ERmandOne;startArrow=ERmandOne;entryX=0;entryY=0.5;entryDx=0;entryDy=0;exitX=1;exitY=0.5;exitDx=0;exitDy=0;" parent="WIyWlLk6GJQsqaUBKTNV-1" source="zkfFHV4jXpPFQw0GAbJ--57" target="8I4-JKD9G43_piyjU0ks-7" edge="1">
          <mxGeometry width="100" height="100" relative="1" as="geometry">
            <mxPoint x="330" y="309" as="sourcePoint"/>
            <mxPoint x="390" y="381" as="targetPoint"/>
          </mxGeometry>
        </mxCell>
        <mxCell id="8I4-JKD9G43_piyjU0ks-23" value="" style="edgeStyle=orthogonalEdgeStyle;fontSize=12;html=1;endArrow=ERoneToMany;startArrow=ERmandOne;entryX=0;entryY=0.5;entryDx=0;entryDy=0;exitX=0;exitY=0.5;exitDx=0;exitDy=0;" parent="WIyWlLk6GJQsqaUBKTNV-1" source="L3K0jDCQB_C3OE6Yni0E-43" target="L3K0jDCQB_C3OE6Yni0E-71" edge="1">
          <mxGeometry width="100" height="100" relative="1" as="geometry">
            <mxPoint x="-310" y="566" as="sourcePoint"/>
            <mxPoint x="-390" y="295" as="targetPoint"/>
          </mxGeometry>
        </mxCell>
        <mxCell id="8I4-JKD9G43_piyjU0ks-24" value="settings" style="swimlane;fontStyle=1;childLayout=stackLayout;horizontal=1;startSize=26;horizontalStack=0;resizeParent=1;resizeLast=0;collapsible=1;marginBottom=0;rounded=0;shadow=0;strokeWidth=1;fillColor=#dae8fc;strokeColor=#6c8ebf;" parent="WIyWlLk6GJQsqaUBKTNV-1" vertex="1">
          <mxGeometry x="-170" y="500" width="160" height="156" as="geometry">
            <mxRectangle x="260" y="80" width="160" height="26" as="alternateBounds"/>
          </mxGeometry>
        </mxCell>
        <mxCell id="8I4-JKD9G43_piyjU0ks-25" value="settings_id" style="shape=partialRectangle;top=0;left=0;right=0;bottom=1;align=left;verticalAlign=top;fillColor=none;spacingLeft=40;spacingRight=4;overflow=hidden;rotatable=0;points=[[0,0.5],[1,0.5]];portConstraint=eastwest;dropTarget=0;rounded=0;shadow=0;strokeWidth=1;fontStyle=4" parent="8I4-JKD9G43_piyjU0ks-24" vertex="1">
          <mxGeometry y="26" width="160" height="26" as="geometry"/>
        </mxCell>
        <mxCell id="8I4-JKD9G43_piyjU0ks-26" value="PK" style="shape=partialRectangle;top=0;left=0;bottom=0;fillColor=none;align=left;verticalAlign=top;spacingLeft=4;spacingRight=4;overflow=hidden;rotatable=0;points=[];portConstraint=eastwest;part=1;" parent="8I4-JKD9G43_piyjU0ks-25" vertex="1" connectable="0">
          <mxGeometry width="36" height="26" as="geometry"/>
        </mxCell>
        <mxCell id="8I4-JKD9G43_piyjU0ks-27" value="settings_module" style="shape=partialRectangle;top=0;left=0;right=0;bottom=0;align=left;verticalAlign=top;fillColor=none;spacingLeft=40;spacingRight=4;overflow=hidden;rotatable=0;points=[[0,0.5],[1,0.5]];portConstraint=eastwest;dropTarget=0;rounded=0;shadow=0;strokeWidth=1;" parent="8I4-JKD9G43_piyjU0ks-24" vertex="1">
          <mxGeometry y="52" width="160" height="26" as="geometry"/>
        </mxCell>
        <mxCell id="8I4-JKD9G43_piyjU0ks-28" value="FK1" style="shape=partialRectangle;top=0;left=0;bottom=0;fillColor=none;align=left;verticalAlign=top;spacingLeft=4;spacingRight=4;overflow=hidden;rotatable=0;points=[];portConstraint=eastwest;part=1;" parent="8I4-JKD9G43_piyjU0ks-27" vertex="1" connectable="0">
          <mxGeometry width="36" height="26" as="geometry"/>
        </mxCell>
        <mxCell id="8I4-JKD9G43_piyjU0ks-29" value="settings_account" style="shape=partialRectangle;top=0;left=0;right=0;bottom=0;align=left;verticalAlign=top;fillColor=none;spacingLeft=40;spacingRight=4;overflow=hidden;rotatable=0;points=[[0,0.5],[1,0.5]];portConstraint=eastwest;dropTarget=0;rounded=0;shadow=0;strokeWidth=1;" parent="8I4-JKD9G43_piyjU0ks-24" vertex="1">
          <mxGeometry y="78" width="160" height="26" as="geometry"/>
        </mxCell>
        <mxCell id="8I4-JKD9G43_piyjU0ks-30" value="FK2" style="shape=partialRectangle;top=0;left=0;bottom=0;fillColor=none;align=left;verticalAlign=top;spacingLeft=4;spacingRight=4;overflow=hidden;rotatable=0;points=[];portConstraint=eastwest;part=1;" parent="8I4-JKD9G43_piyjU0ks-29" vertex="1" connectable="0">
          <mxGeometry width="36" height="26" as="geometry"/>
        </mxCell>
        <mxCell id="8I4-JKD9G43_piyjU0ks-37" value="settings_group" style="shape=partialRectangle;top=0;left=0;right=0;bottom=0;align=left;verticalAlign=top;fillColor=none;spacingLeft=40;spacingRight=4;overflow=hidden;rotatable=0;points=[[0,0.5],[1,0.5]];portConstraint=eastwest;dropTarget=0;rounded=0;shadow=0;strokeWidth=1;" parent="8I4-JKD9G43_piyjU0ks-24" vertex="1">
          <mxGeometry y="104" width="160" height="26" as="geometry"/>
        </mxCell>
        <mxCell id="8I4-JKD9G43_piyjU0ks-38" value="FK3" style="shape=partialRectangle;top=0;left=0;bottom=0;fillColor=none;align=left;verticalAlign=top;spacingLeft=4;spacingRight=4;overflow=hidden;rotatable=0;points=[];portConstraint=eastwest;part=1;" parent="8I4-JKD9G43_piyjU0ks-37" vertex="1" connectable="0">
          <mxGeometry width="36" height="26" as="geometry"/>
        </mxCell>
        <mxCell id="8I4-JKD9G43_piyjU0ks-31" value="...." style="shape=partialRectangle;top=0;left=0;right=0;bottom=0;align=left;verticalAlign=top;fillColor=none;spacingLeft=40;spacingRight=4;overflow=hidden;rotatable=0;points=[[0,0.5],[1,0.5]];portConstraint=eastwest;dropTarget=0;rounded=0;shadow=0;strokeWidth=1;" parent="8I4-JKD9G43_piyjU0ks-24" vertex="1">
          <mxGeometry y="130" width="160" height="26" as="geometry"/>
        </mxCell>
        <mxCell id="8I4-JKD9G43_piyjU0ks-32" value="" style="shape=partialRectangle;top=0;left=0;bottom=0;fillColor=none;align=left;verticalAlign=top;spacingLeft=4;spacingRight=4;overflow=hidden;rotatable=0;points=[];portConstraint=eastwest;part=1;" parent="8I4-JKD9G43_piyjU0ks-31" vertex="1" connectable="0">
          <mxGeometry width="36" height="26" as="geometry"/>
        </mxCell>
        <mxCell id="8I4-JKD9G43_piyjU0ks-34" value="" style="edgeStyle=orthogonalEdgeStyle;fontSize=12;html=1;endArrow=ERzeroToOne;endFill=1;startArrow=ERzeroToOne;startFill=1;entryX=0;entryY=0.5;entryDx=0;entryDy=0;exitX=1;exitY=0.5;exitDx=0;exitDy=0;" parent="WIyWlLk6GJQsqaUBKTNV-1" source="L3K0jDCQB_C3OE6Yni0E-42" target="8I4-JKD9G43_piyjU0ks-27" edge="1">
          <mxGeometry width="100" height="100" relative="1" as="geometry">
            <mxPoint x="-380" y="750" as="sourcePoint"/>
            <mxPoint x="-280" y="650" as="targetPoint"/>
          </mxGeometry>
        </mxCell>
        <mxCell id="8I4-JKD9G43_piyjU0ks-35" value="" style="edgeStyle=orthogonalEdgeStyle;fontSize=12;html=1;endArrow=ERzeroToOne;endFill=1;startArrow=ERzeroToOne;startFill=1;entryX=-0.012;entryY=0.923;entryDx=0;entryDy=0;exitX=1;exitY=0.5;exitDx=0;exitDy=0;entryPerimeter=0;" parent="WIyWlLk6GJQsqaUBKTNV-1" source="8I4-JKD9G43_piyjU0ks-29" target="zkfFHV4jXpPFQw0GAbJ--52" edge="1">
          <mxGeometry width="100" height="100" relative="1" as="geometry">
            <mxPoint x="80" y="665.5" as="sourcePoint"/>
            <mxPoint x="120" y="530.5" as="targetPoint"/>
          </mxGeometry>
        </mxCell>
        <mxCell id="8I4-JKD9G43_piyjU0ks-36" value="" style="edgeStyle=orthogonalEdgeStyle;fontSize=12;html=1;endArrow=ERzeroToOne;endFill=1;startArrow=ERzeroToOne;startFill=1;exitX=1;exitY=0.5;exitDx=0;exitDy=0;entryX=0;entryY=0.5;entryDx=0;entryDy=0;" parent="WIyWlLk6GJQsqaUBKTNV-1" source="8I4-JKD9G43_piyjU0ks-37" target="zkfFHV4jXpPFQw0GAbJ--57" edge="1">
          <mxGeometry width="100" height="100" relative="1" as="geometry">
            <mxPoint x="100" y="441" as="sourcePoint"/>
            <mxPoint x="60" y="570" as="targetPoint"/>
          </mxGeometry>
        </mxCell>
        <mxCell id="8I4-JKD9G43_piyjU0ks-43" value="" style="edgeStyle=orthogonalEdgeStyle;fontSize=12;html=1;endArrow=ERoneToMany;startArrow=ERmandOne;entryX=0;entryY=0.5;entryDx=0;entryDy=0;exitX=0;exitY=0.5;exitDx=0;exitDy=0;" parent="WIyWlLk6GJQsqaUBKTNV-1" source="zkfFHV4jXpPFQw0GAbJ--52" target="8I4-JKD9G43_piyjU0ks-41" edge="1">
          <mxGeometry width="100" height="100" relative="1" as="geometry">
            <mxPoint x="160" y="309" as="sourcePoint"/>
            <mxPoint x="-250" y="309" as="targetPoint"/>
          </mxGeometry>
        </mxCell>
        <mxCell id="8I4-JKD9G43_piyjU0ks-44" value="group_permission" style="swimlane;fontStyle=1;childLayout=stackLayout;horizontal=1;startSize=26;horizontalStack=0;resizeParent=1;resizeLast=0;collapsible=1;marginBottom=0;rounded=0;shadow=0;strokeWidth=1;fillColor=#dae8fc;strokeColor=#6c8ebf;" parent="WIyWlLk6GJQsqaUBKTNV-1" vertex="1">
          <mxGeometry x="100" y="514" width="220" height="104" as="geometry">
            <mxRectangle x="20" y="80" width="160" height="26" as="alternateBounds"/>
          </mxGeometry>
        </mxCell>
        <mxCell id="8I4-JKD9G43_piyjU0ks-45" value="group_permission_id" style="shape=partialRectangle;top=0;left=0;right=0;bottom=1;align=left;verticalAlign=top;fillColor=none;spacingLeft=40;spacingRight=4;overflow=hidden;rotatable=0;points=[[0,0.5],[1,0.5]];portConstraint=eastwest;dropTarget=0;rounded=0;shadow=0;strokeWidth=1;fontStyle=4" parent="8I4-JKD9G43_piyjU0ks-44" vertex="1">
          <mxGeometry y="26" width="220" height="26" as="geometry"/>
        </mxCell>
        <mxCell id="8I4-JKD9G43_piyjU0ks-46" value="PK" style="shape=partialRectangle;top=0;left=0;bottom=0;fillColor=none;align=left;verticalAlign=top;spacingLeft=4;spacingRight=4;overflow=hidden;rotatable=0;points=[];portConstraint=eastwest;part=1;" parent="8I4-JKD9G43_piyjU0ks-45" vertex="1" connectable="0">
          <mxGeometry width="36" height="26" as="geometry"/>
        </mxCell>
        <mxCell id="8I4-JKD9G43_piyjU0ks-47" value="group_permission_account" style="shape=partialRectangle;top=0;left=0;right=0;bottom=0;align=left;verticalAlign=top;fillColor=none;spacingLeft=40;spacingRight=4;overflow=hidden;rotatable=0;points=[[0,0.5],[1,0.5]];portConstraint=eastwest;dropTarget=0;rounded=0;shadow=0;strokeWidth=1;" parent="8I4-JKD9G43_piyjU0ks-44" vertex="1">
          <mxGeometry y="52" width="220" height="26" as="geometry"/>
        </mxCell>
        <mxCell id="8I4-JKD9G43_piyjU0ks-48" value="FK1" style="shape=partialRectangle;top=0;left=0;bottom=0;fillColor=none;align=left;verticalAlign=top;spacingLeft=4;spacingRight=4;overflow=hidden;rotatable=0;points=[];portConstraint=eastwest;part=1;" parent="8I4-JKD9G43_piyjU0ks-47" vertex="1" connectable="0">
          <mxGeometry width="36" height="26" as="geometry"/>
        </mxCell>
        <mxCell id="8I4-JKD9G43_piyjU0ks-49" value="..." style="shape=partialRectangle;top=0;left=0;right=0;bottom=0;align=left;verticalAlign=top;fillColor=none;spacingLeft=40;spacingRight=4;overflow=hidden;rotatable=0;points=[[0,0.5],[1,0.5]];portConstraint=eastwest;dropTarget=0;rounded=0;shadow=0;strokeWidth=1;" parent="8I4-JKD9G43_piyjU0ks-44" vertex="1">
          <mxGeometry y="78" width="220" height="26" as="geometry"/>
        </mxCell>
        <mxCell id="8I4-JKD9G43_piyjU0ks-50" value="" style="shape=partialRectangle;top=0;left=0;bottom=0;fillColor=none;align=left;verticalAlign=top;spacingLeft=4;spacingRight=4;overflow=hidden;rotatable=0;points=[];portConstraint=eastwest;part=1;" parent="8I4-JKD9G43_piyjU0ks-49" vertex="1" connectable="0">
          <mxGeometry width="36" height="26" as="geometry"/>
        </mxCell>
        <mxCell id="8I4-JKD9G43_piyjU0ks-51" value="" style="edgeStyle=orthogonalEdgeStyle;fontSize=12;html=1;endArrow=ERoneToMany;startArrow=ERmandOne;entryX=1;entryY=0.5;entryDx=0;entryDy=0;exitX=1;exitY=0.5;exitDx=0;exitDy=0;" parent="WIyWlLk6GJQsqaUBKTNV-1" source="zkfFHV4jXpPFQw0GAbJ--57" target="8I4-JKD9G43_piyjU0ks-47" edge="1">
          <mxGeometry width="100" height="100" relative="1" as="geometry">
            <mxPoint x="160" y="309" as="sourcePoint"/>
            <mxPoint x="100" y="186" as="targetPoint"/>
          </mxGeometry>
        </mxCell>
        <mxCell id="8I4-JKD9G43_piyjU0ks-54" value="" style="edgeStyle=orthogonalEdgeStyle;fontSize=12;html=1;endArrow=ERoneToMany;startArrow=ERmandOne;entryX=0;entryY=0.5;entryDx=0;entryDy=0;exitX=1;exitY=0.5;exitDx=0;exitDy=0;" parent="WIyWlLk6GJQsqaUBKTNV-1" source="L3K0jDCQB_C3OE6Yni0E-76" target="L3K0jDCQB_C3OE6Yni0E-85" edge="1">
          <mxGeometry width="100" height="100" relative="1" as="geometry">
            <mxPoint x="-1065" y="455" as="sourcePoint"/>
            <mxPoint x="-1775" y="204" as="targetPoint"/>
          </mxGeometry>
        </mxCell>
        <mxCell id="8I4-JKD9G43_piyjU0ks-56" value="" style="edgeStyle=orthogonalEdgeStyle;fontSize=12;html=1;endArrow=ERmandOne;startArrow=ERmandOne;entryX=0;entryY=0.5;entryDx=0;entryDy=0;exitX=1;exitY=0.5;exitDx=0;exitDy=0;" parent="WIyWlLk6GJQsqaUBKTNV-1" source="L3K0jDCQB_C3OE6Yni0E-52" target="zkfFHV4jXpPFQw0GAbJ--52" edge="1">
          <mxGeometry width="100" height="100" relative="1" as="geometry">
            <mxPoint x="320" y="309" as="sourcePoint"/>
            <mxPoint x="380" y="381" as="targetPoint"/>
          </mxGeometry>
        </mxCell>
        <mxCell id="8I4-JKD9G43_piyjU0ks-57" value="Profile Module" style="rounded=0;whiteSpace=wrap;html=1;fillColor=#f8cecc;strokeColor=#b85450;" parent="WIyWlLk6GJQsqaUBKTNV-1" vertex="1">
          <mxGeometry x="430" y="520" width="120" height="40" as="geometry"/>
        </mxCell>
        <mxCell id="8I4-JKD9G43_piyjU0ks-58" value="Core / Installation" style="rounded=0;whiteSpace=wrap;html=1;fillColor=#fff2cc;strokeColor=#d6b656;" parent="WIyWlLk6GJQsqaUBKTNV-1" vertex="1">
          <mxGeometry x="430" y="414" width="120" height="40" as="geometry"/>
        </mxCell>
        <mxCell id="8I4-JKD9G43_piyjU0ks-59" value="Admin Module" style="rounded=0;whiteSpace=wrap;html=1;fillColor=#dae8fc;strokeColor=#6c8ebf;" parent="WIyWlLk6GJQsqaUBKTNV-1" vertex="1">
          <mxGeometry x="430" y="468" width="120" height="40" as="geometry"/>
        </mxCell>
        <mxCell id="8I4-JKD9G43_piyjU0ks-60" value="Address Module" style="rounded=0;whiteSpace=wrap;html=1;fillColor=#e1d5e7;strokeColor=#9673a6;" parent="WIyWlLk6GJQsqaUBKTNV-1" vertex="1">
          <mxGeometry x="430" y="578" width="120" height="40" as="geometry"/>
        </mxCell>
      </root>
    </mxGraphModel>
  </diagram>
  <diagram id="zMYn8k4_1J1iRFyRFSgu" name="admin">
    <mxGraphModel dx="2062" dy="781" grid="1" gridSize="10" guides="1" tooltips="1" connect="1" arrows="1" fold="1" page="1" pageScale="1" pageWidth="850" pageHeight="1100" math="0" shadow="0">
      <root>
        <mxCell id="LLWVm0zqV-prfdSdSp3N-0"/>
        <mxCell id="LLWVm0zqV-prfdSdSp3N-1" parent="LLWVm0zqV-prfdSdSp3N-0"/>
        <mxCell id="S8VaQpaIrWbLrI0OXIkD-0" value="account" style="swimlane;fontStyle=1;childLayout=stackLayout;horizontal=1;startSize=26;horizontalStack=0;resizeParent=1;resizeLast=0;collapsible=1;marginBottom=0;rounded=0;shadow=0;strokeWidth=1;fillColor=#dae8fc;strokeColor=#6c8ebf;" vertex="1" parent="LLWVm0zqV-prfdSdSp3N-1">
          <mxGeometry x="395" y="260" width="160" height="78" as="geometry">
            <mxRectangle x="20" y="80" width="160" height="26" as="alternateBounds"/>
          </mxGeometry>
        </mxCell>
        <mxCell id="S8VaQpaIrWbLrI0OXIkD-1" value="account_id" style="shape=partialRectangle;top=0;left=0;right=0;bottom=1;align=left;verticalAlign=top;fillColor=none;spacingLeft=40;spacingRight=4;overflow=hidden;rotatable=0;points=[[0,0.5],[1,0.5]];portConstraint=eastwest;dropTarget=0;rounded=0;shadow=0;strokeWidth=1;fontStyle=4" vertex="1" parent="S8VaQpaIrWbLrI0OXIkD-0">
          <mxGeometry y="26" width="160" height="26" as="geometry"/>
        </mxCell>
        <mxCell id="S8VaQpaIrWbLrI0OXIkD-2" value="PK" style="shape=partialRectangle;top=0;left=0;bottom=0;fillColor=none;align=left;verticalAlign=top;spacingLeft=4;spacingRight=4;overflow=hidden;rotatable=0;points=[];portConstraint=eastwest;part=1;" vertex="1" connectable="0" parent="S8VaQpaIrWbLrI0OXIkD-1">
          <mxGeometry width="36" height="26" as="geometry"/>
        </mxCell>
        <mxCell id="S8VaQpaIrWbLrI0OXIkD-3" value="..." style="shape=partialRectangle;top=0;left=0;right=0;bottom=0;align=left;verticalAlign=top;fillColor=none;spacingLeft=40;spacingRight=4;overflow=hidden;rotatable=0;points=[[0,0.5],[1,0.5]];portConstraint=eastwest;dropTarget=0;rounded=0;shadow=0;strokeWidth=1;" vertex="1" parent="S8VaQpaIrWbLrI0OXIkD-0">
          <mxGeometry y="52" width="160" height="26" as="geometry"/>
        </mxCell>
        <mxCell id="S8VaQpaIrWbLrI0OXIkD-4" value="" style="shape=partialRectangle;top=0;left=0;bottom=0;fillColor=none;align=left;verticalAlign=top;spacingLeft=4;spacingRight=4;overflow=hidden;rotatable=0;points=[];portConstraint=eastwest;part=1;" vertex="1" connectable="0" parent="S8VaQpaIrWbLrI0OXIkD-3">
          <mxGeometry width="36" height="26" as="geometry"/>
        </mxCell>
        <mxCell id="S8VaQpaIrWbLrI0OXIkD-5" value="group" style="swimlane;fontStyle=1;childLayout=stackLayout;horizontal=1;startSize=26;horizontalStack=0;resizeParent=1;resizeLast=0;collapsible=1;marginBottom=0;rounded=0;shadow=0;strokeWidth=1;fillColor=#dae8fc;strokeColor=#6c8ebf;" vertex="1" parent="LLWVm0zqV-prfdSdSp3N-1">
          <mxGeometry x="405" y="390" width="160" height="78" as="geometry">
            <mxRectangle x="260" y="80" width="160" height="26" as="alternateBounds"/>
          </mxGeometry>
        </mxCell>
        <mxCell id="S8VaQpaIrWbLrI0OXIkD-6" value="group_id" style="shape=partialRectangle;top=0;left=0;right=0;bottom=1;align=left;verticalAlign=top;fillColor=none;spacingLeft=40;spacingRight=4;overflow=hidden;rotatable=0;points=[[0,0.5],[1,0.5]];portConstraint=eastwest;dropTarget=0;rounded=0;shadow=0;strokeWidth=1;fontStyle=4" vertex="1" parent="S8VaQpaIrWbLrI0OXIkD-5">
          <mxGeometry y="26" width="160" height="26" as="geometry"/>
        </mxCell>
        <mxCell id="S8VaQpaIrWbLrI0OXIkD-7" value="PK" style="shape=partialRectangle;top=0;left=0;bottom=0;fillColor=none;align=left;verticalAlign=top;spacingLeft=4;spacingRight=4;overflow=hidden;rotatable=0;points=[];portConstraint=eastwest;part=1;" vertex="1" connectable="0" parent="S8VaQpaIrWbLrI0OXIkD-6">
          <mxGeometry width="36" height="26" as="geometry"/>
        </mxCell>
        <mxCell id="S8VaQpaIrWbLrI0OXIkD-8" value="..." style="shape=partialRectangle;top=0;left=0;right=0;bottom=0;align=left;verticalAlign=top;fillColor=none;spacingLeft=40;spacingRight=4;overflow=hidden;rotatable=0;points=[[0,0.5],[1,0.5]];portConstraint=eastwest;dropTarget=0;rounded=0;shadow=0;strokeWidth=1;" vertex="1" parent="S8VaQpaIrWbLrI0OXIkD-5">
          <mxGeometry y="52" width="160" height="26" as="geometry"/>
        </mxCell>
        <mxCell id="S8VaQpaIrWbLrI0OXIkD-9" value="" style="shape=partialRectangle;top=0;left=0;bottom=0;fillColor=none;align=left;verticalAlign=top;spacingLeft=4;spacingRight=4;overflow=hidden;rotatable=0;points=[];portConstraint=eastwest;part=1;" vertex="1" connectable="0" parent="S8VaQpaIrWbLrI0OXIkD-8">
          <mxGeometry width="36" height="26" as="geometry"/>
        </mxCell>
        <mxCell id="S8VaQpaIrWbLrI0OXIkD-10" value="language" style="swimlane;fontStyle=1;childLayout=stackLayout;horizontal=1;startSize=26;horizontalStack=0;resizeParent=1;resizeLast=0;collapsible=1;marginBottom=0;rounded=0;shadow=0;strokeWidth=1;fillColor=#dae8fc;strokeColor=#6c8ebf;" vertex="1" parent="LLWVm0zqV-prfdSdSp3N-1">
          <mxGeometry x="125" y="111" width="160" height="104" as="geometry">
            <mxRectangle x="260" y="80" width="160" height="26" as="alternateBounds"/>
          </mxGeometry>
        </mxCell>
        <mxCell id="S8VaQpaIrWbLrI0OXIkD-11" value="language_id" style="shape=partialRectangle;top=0;left=0;right=0;bottom=1;align=left;verticalAlign=top;fillColor=none;spacingLeft=40;spacingRight=4;overflow=hidden;rotatable=0;points=[[0,0.5],[1,0.5]];portConstraint=eastwest;dropTarget=0;rounded=0;shadow=0;strokeWidth=1;fontStyle=4" vertex="1" parent="S8VaQpaIrWbLrI0OXIkD-10">
          <mxGeometry y="26" width="160" height="26" as="geometry"/>
        </mxCell>
        <mxCell id="S8VaQpaIrWbLrI0OXIkD-12" value="PK" style="shape=partialRectangle;top=0;left=0;bottom=0;fillColor=none;align=left;verticalAlign=top;spacingLeft=4;spacingRight=4;overflow=hidden;rotatable=0;points=[];portConstraint=eastwest;part=1;" vertex="1" connectable="0" parent="S8VaQpaIrWbLrI0OXIkD-11">
          <mxGeometry width="36" height="26" as="geometry"/>
        </mxCell>
        <mxCell id="S8VaQpaIrWbLrI0OXIkD-13" value="CustomerId" style="shape=partialRectangle;top=0;left=0;right=0;bottom=0;align=left;verticalAlign=top;fillColor=none;spacingLeft=40;spacingRight=4;overflow=hidden;rotatable=0;points=[[0,0.5],[1,0.5]];portConstraint=eastwest;dropTarget=0;rounded=0;shadow=0;strokeWidth=1;" vertex="1" parent="S8VaQpaIrWbLrI0OXIkD-10">
          <mxGeometry y="52" width="160" height="26" as="geometry"/>
        </mxCell>
        <mxCell id="S8VaQpaIrWbLrI0OXIkD-14" value="FK1" style="shape=partialRectangle;top=0;left=0;bottom=0;fillColor=none;align=left;verticalAlign=top;spacingLeft=4;spacingRight=4;overflow=hidden;rotatable=0;points=[];portConstraint=eastwest;part=1;" vertex="1" connectable="0" parent="S8VaQpaIrWbLrI0OXIkD-13">
          <mxGeometry width="36" height="26" as="geometry"/>
        </mxCell>
        <mxCell id="S8VaQpaIrWbLrI0OXIkD-15" value="..." style="shape=partialRectangle;top=0;left=0;right=0;bottom=0;align=left;verticalAlign=top;fillColor=none;spacingLeft=40;spacingRight=4;overflow=hidden;rotatable=0;points=[[0,0.5],[1,0.5]];portConstraint=eastwest;dropTarget=0;rounded=0;shadow=0;strokeWidth=1;" vertex="1" parent="S8VaQpaIrWbLrI0OXIkD-10">
          <mxGeometry y="78" width="160" height="26" as="geometry"/>
        </mxCell>
        <mxCell id="S8VaQpaIrWbLrI0OXIkD-16" value="" style="shape=partialRectangle;top=0;left=0;bottom=0;fillColor=none;align=left;verticalAlign=top;spacingLeft=4;spacingRight=4;overflow=hidden;rotatable=0;points=[];portConstraint=eastwest;part=1;" vertex="1" connectable="0" parent="S8VaQpaIrWbLrI0OXIkD-15">
          <mxGeometry width="36" height="26" as="geometry"/>
        </mxCell>
        <mxCell id="S8VaQpaIrWbLrI0OXIkD-17" value="l11n" style="swimlane;fontStyle=1;childLayout=stackLayout;horizontal=1;startSize=26;horizontalStack=0;resizeParent=1;resizeLast=0;collapsible=1;marginBottom=0;rounded=0;shadow=0;strokeWidth=1;fillColor=#dae8fc;strokeColor=#6c8ebf;" vertex="1" parent="LLWVm0zqV-prfdSdSp3N-1">
          <mxGeometry x="55" y="310" width="160" height="104" as="geometry">
            <mxRectangle x="260" y="80" width="160" height="26" as="alternateBounds"/>
          </mxGeometry>
        </mxCell>
        <mxCell id="S8VaQpaIrWbLrI0OXIkD-18" value="l11n_id" style="shape=partialRectangle;top=0;left=0;right=0;bottom=1;align=left;verticalAlign=top;fillColor=none;spacingLeft=40;spacingRight=4;overflow=hidden;rotatable=0;points=[[0,0.5],[1,0.5]];portConstraint=eastwest;dropTarget=0;rounded=0;shadow=0;strokeWidth=1;fontStyle=4" vertex="1" parent="S8VaQpaIrWbLrI0OXIkD-17">
          <mxGeometry y="26" width="160" height="26" as="geometry"/>
        </mxCell>
        <mxCell id="S8VaQpaIrWbLrI0OXIkD-19" value="PK" style="shape=partialRectangle;top=0;left=0;bottom=0;fillColor=none;align=left;verticalAlign=top;spacingLeft=4;spacingRight=4;overflow=hidden;rotatable=0;points=[];portConstraint=eastwest;part=1;" vertex="1" connectable="0" parent="S8VaQpaIrWbLrI0OXIkD-18">
          <mxGeometry width="36" height="26" as="geometry"/>
        </mxCell>
        <mxCell id="S8VaQpaIrWbLrI0OXIkD-20" value="l11n_account" style="shape=partialRectangle;top=0;left=0;right=0;bottom=0;align=left;verticalAlign=top;fillColor=none;spacingLeft=40;spacingRight=4;overflow=hidden;rotatable=0;points=[[0,0.5],[1,0.5]];portConstraint=eastwest;dropTarget=0;rounded=0;shadow=0;strokeWidth=1;" vertex="1" parent="S8VaQpaIrWbLrI0OXIkD-17">
          <mxGeometry y="52" width="160" height="26" as="geometry"/>
        </mxCell>
        <mxCell id="S8VaQpaIrWbLrI0OXIkD-21" value="FK1" style="shape=partialRectangle;top=0;left=0;bottom=0;fillColor=none;align=left;verticalAlign=top;spacingLeft=4;spacingRight=4;overflow=hidden;rotatable=0;points=[];portConstraint=eastwest;part=1;" vertex="1" connectable="0" parent="S8VaQpaIrWbLrI0OXIkD-20">
          <mxGeometry width="36" height="26" as="geometry"/>
        </mxCell>
        <mxCell id="S8VaQpaIrWbLrI0OXIkD-22" value="..." style="shape=partialRectangle;top=0;left=0;right=0;bottom=0;align=left;verticalAlign=top;fillColor=none;spacingLeft=40;spacingRight=4;overflow=hidden;rotatable=0;points=[[0,0.5],[1,0.5]];portConstraint=eastwest;dropTarget=0;rounded=0;shadow=0;strokeWidth=1;" vertex="1" parent="S8VaQpaIrWbLrI0OXIkD-17">
          <mxGeometry y="78" width="160" height="26" as="geometry"/>
        </mxCell>
        <mxCell id="S8VaQpaIrWbLrI0OXIkD-23" value="" style="shape=partialRectangle;top=0;left=0;bottom=0;fillColor=none;align=left;verticalAlign=top;spacingLeft=4;spacingRight=4;overflow=hidden;rotatable=0;points=[];portConstraint=eastwest;part=1;" vertex="1" connectable="0" parent="S8VaQpaIrWbLrI0OXIkD-22">
          <mxGeometry width="36" height="26" as="geometry"/>
        </mxCell>
        <mxCell id="S8VaQpaIrWbLrI0OXIkD-24" value="account_permission" style="swimlane;fontStyle=1;childLayout=stackLayout;horizontal=1;startSize=26;horizontalStack=0;resizeParent=1;resizeLast=0;collapsible=1;marginBottom=0;rounded=0;shadow=0;strokeWidth=1;fillColor=#dae8fc;strokeColor=#6c8ebf;" vertex="1" parent="LLWVm0zqV-prfdSdSp3N-1">
          <mxGeometry x="335" y="111" width="240" height="104" as="geometry">
            <mxRectangle x="20" y="80" width="160" height="26" as="alternateBounds"/>
          </mxGeometry>
        </mxCell>
        <mxCell id="S8VaQpaIrWbLrI0OXIkD-25" value="account_permission_id" style="shape=partialRectangle;top=0;left=0;right=0;bottom=1;align=left;verticalAlign=top;fillColor=none;spacingLeft=40;spacingRight=4;overflow=hidden;rotatable=0;points=[[0,0.5],[1,0.5]];portConstraint=eastwest;dropTarget=0;rounded=0;shadow=0;strokeWidth=1;fontStyle=4" vertex="1" parent="S8VaQpaIrWbLrI0OXIkD-24">
          <mxGeometry y="26" width="240" height="26" as="geometry"/>
        </mxCell>
        <mxCell id="S8VaQpaIrWbLrI0OXIkD-26" value="PK" style="shape=partialRectangle;top=0;left=0;bottom=0;fillColor=none;align=left;verticalAlign=top;spacingLeft=4;spacingRight=4;overflow=hidden;rotatable=0;points=[];portConstraint=eastwest;part=1;" vertex="1" connectable="0" parent="S8VaQpaIrWbLrI0OXIkD-25">
          <mxGeometry width="36" height="26" as="geometry"/>
        </mxCell>
        <mxCell id="S8VaQpaIrWbLrI0OXIkD-27" value="account_permission_account" style="shape=partialRectangle;top=0;left=0;right=0;bottom=0;align=left;verticalAlign=top;fillColor=none;spacingLeft=40;spacingRight=4;overflow=hidden;rotatable=0;points=[[0,0.5],[1,0.5]];portConstraint=eastwest;dropTarget=0;rounded=0;shadow=0;strokeWidth=1;" vertex="1" parent="S8VaQpaIrWbLrI0OXIkD-24">
          <mxGeometry y="52" width="240" height="26" as="geometry"/>
        </mxCell>
        <mxCell id="S8VaQpaIrWbLrI0OXIkD-28" value="FK1" style="shape=partialRectangle;top=0;left=0;bottom=0;fillColor=none;align=left;verticalAlign=top;spacingLeft=4;spacingRight=4;overflow=hidden;rotatable=0;points=[];portConstraint=eastwest;part=1;" vertex="1" connectable="0" parent="S8VaQpaIrWbLrI0OXIkD-27">
          <mxGeometry width="36" height="26" as="geometry"/>
        </mxCell>
        <mxCell id="S8VaQpaIrWbLrI0OXIkD-29" value="..." style="shape=partialRectangle;top=0;left=0;right=0;bottom=0;align=left;verticalAlign=top;fillColor=none;spacingLeft=40;spacingRight=4;overflow=hidden;rotatable=0;points=[[0,0.5],[1,0.5]];portConstraint=eastwest;dropTarget=0;rounded=0;shadow=0;strokeWidth=1;" vertex="1" parent="S8VaQpaIrWbLrI0OXIkD-24">
          <mxGeometry y="78" width="240" height="26" as="geometry"/>
        </mxCell>
        <mxCell id="S8VaQpaIrWbLrI0OXIkD-30" value="" style="shape=partialRectangle;top=0;left=0;bottom=0;fillColor=none;align=left;verticalAlign=top;spacingLeft=4;spacingRight=4;overflow=hidden;rotatable=0;points=[];portConstraint=eastwest;part=1;" vertex="1" connectable="0" parent="S8VaQpaIrWbLrI0OXIkD-29">
          <mxGeometry width="36" height="26" as="geometry"/>
        </mxCell>
        <mxCell id="S8VaQpaIrWbLrI0OXIkD-31" value="account_group" style="swimlane;fontStyle=1;childLayout=stackLayout;horizontal=1;startSize=26;horizontalStack=0;resizeParent=1;resizeLast=0;collapsible=1;marginBottom=0;rounded=0;shadow=0;strokeWidth=1;fillColor=#dae8fc;strokeColor=#6c8ebf;" vertex="1" parent="LLWVm0zqV-prfdSdSp3N-1">
          <mxGeometry x="605" y="286" width="190" height="104" as="geometry">
            <mxRectangle x="20" y="80" width="160" height="26" as="alternateBounds"/>
          </mxGeometry>
        </mxCell>
        <mxCell id="S8VaQpaIrWbLrI0OXIkD-32" value="account_id" style="shape=partialRectangle;top=0;left=0;right=0;bottom=1;align=left;verticalAlign=top;fillColor=none;spacingLeft=40;spacingRight=4;overflow=hidden;rotatable=0;points=[[0,0.5],[1,0.5]];portConstraint=eastwest;dropTarget=0;rounded=0;shadow=0;strokeWidth=1;fontStyle=4" vertex="1" parent="S8VaQpaIrWbLrI0OXIkD-31">
          <mxGeometry y="26" width="190" height="26" as="geometry"/>
        </mxCell>
        <mxCell id="S8VaQpaIrWbLrI0OXIkD-33" value="PK" style="shape=partialRectangle;top=0;left=0;bottom=0;fillColor=none;align=left;verticalAlign=top;spacingLeft=4;spacingRight=4;overflow=hidden;rotatable=0;points=[];portConstraint=eastwest;part=1;" vertex="1" connectable="0" parent="S8VaQpaIrWbLrI0OXIkD-32">
          <mxGeometry width="36" height="26" as="geometry"/>
        </mxCell>
        <mxCell id="S8VaQpaIrWbLrI0OXIkD-34" value="account_group_account" style="shape=partialRectangle;top=0;left=0;right=0;bottom=0;align=left;verticalAlign=top;fillColor=none;spacingLeft=40;spacingRight=4;overflow=hidden;rotatable=0;points=[[0,0.5],[1,0.5]];portConstraint=eastwest;dropTarget=0;rounded=0;shadow=0;strokeWidth=1;" vertex="1" parent="S8VaQpaIrWbLrI0OXIkD-31">
          <mxGeometry y="52" width="190" height="26" as="geometry"/>
        </mxCell>
        <mxCell id="S8VaQpaIrWbLrI0OXIkD-35" value="FK1" style="shape=partialRectangle;top=0;left=0;bottom=0;fillColor=none;align=left;verticalAlign=top;spacingLeft=4;spacingRight=4;overflow=hidden;rotatable=0;points=[];portConstraint=eastwest;part=1;" vertex="1" connectable="0" parent="S8VaQpaIrWbLrI0OXIkD-34">
          <mxGeometry width="36" height="26" as="geometry"/>
        </mxCell>
        <mxCell id="S8VaQpaIrWbLrI0OXIkD-36" value="account_group_group" style="shape=partialRectangle;top=0;left=0;right=0;bottom=0;align=left;verticalAlign=top;fillColor=none;spacingLeft=40;spacingRight=4;overflow=hidden;rotatable=0;points=[[0,0.5],[1,0.5]];portConstraint=eastwest;dropTarget=0;rounded=0;shadow=0;strokeWidth=1;" vertex="1" parent="S8VaQpaIrWbLrI0OXIkD-31">
          <mxGeometry y="78" width="190" height="26" as="geometry"/>
        </mxCell>
        <mxCell id="S8VaQpaIrWbLrI0OXIkD-37" value="FK2" style="shape=partialRectangle;top=0;left=0;bottom=0;fillColor=none;align=left;verticalAlign=top;spacingLeft=4;spacingRight=4;overflow=hidden;rotatable=0;points=[];portConstraint=eastwest;part=1;" vertex="1" connectable="0" parent="S8VaQpaIrWbLrI0OXIkD-36">
          <mxGeometry width="36" height="26" as="geometry"/>
        </mxCell>
        <mxCell id="S8VaQpaIrWbLrI0OXIkD-38" value="" style="edgeStyle=orthogonalEdgeStyle;fontSize=12;html=1;endArrow=ERmandOne;startArrow=ERmandOne;entryX=0;entryY=0.5;entryDx=0;entryDy=0;exitX=1;exitY=0.5;exitDx=0;exitDy=0;" edge="1" parent="LLWVm0zqV-prfdSdSp3N-1" source="S8VaQpaIrWbLrI0OXIkD-0" target="S8VaQpaIrWbLrI0OXIkD-34">
          <mxGeometry width="100" height="100" relative="1" as="geometry">
            <mxPoint x="105" y="760" as="sourcePoint"/>
            <mxPoint x="205" y="660" as="targetPoint"/>
          </mxGeometry>
        </mxCell>
        <mxCell id="S8VaQpaIrWbLrI0OXIkD-39" value="" style="edgeStyle=orthogonalEdgeStyle;fontSize=12;html=1;endArrow=ERmandOne;startArrow=ERmandOne;entryX=0;entryY=0.5;entryDx=0;entryDy=0;exitX=1;exitY=0.5;exitDx=0;exitDy=0;" edge="1" parent="LLWVm0zqV-prfdSdSp3N-1" source="S8VaQpaIrWbLrI0OXIkD-6" target="S8VaQpaIrWbLrI0OXIkD-36">
          <mxGeometry width="100" height="100" relative="1" as="geometry">
            <mxPoint x="575" y="309" as="sourcePoint"/>
            <mxPoint x="635" y="381" as="targetPoint"/>
          </mxGeometry>
        </mxCell>
        <mxCell id="S8VaQpaIrWbLrI0OXIkD-40" value="settings" style="swimlane;fontStyle=1;childLayout=stackLayout;horizontal=1;startSize=26;horizontalStack=0;resizeParent=1;resizeLast=0;collapsible=1;marginBottom=0;rounded=0;shadow=0;strokeWidth=1;fillColor=#dae8fc;strokeColor=#6c8ebf;" vertex="1" parent="LLWVm0zqV-prfdSdSp3N-1">
          <mxGeometry x="75" y="500" width="160" height="156" as="geometry">
            <mxRectangle x="260" y="80" width="160" height="26" as="alternateBounds"/>
          </mxGeometry>
        </mxCell>
        <mxCell id="S8VaQpaIrWbLrI0OXIkD-41" value="settings_id" style="shape=partialRectangle;top=0;left=0;right=0;bottom=1;align=left;verticalAlign=top;fillColor=none;spacingLeft=40;spacingRight=4;overflow=hidden;rotatable=0;points=[[0,0.5],[1,0.5]];portConstraint=eastwest;dropTarget=0;rounded=0;shadow=0;strokeWidth=1;fontStyle=4" vertex="1" parent="S8VaQpaIrWbLrI0OXIkD-40">
          <mxGeometry y="26" width="160" height="26" as="geometry"/>
        </mxCell>
        <mxCell id="S8VaQpaIrWbLrI0OXIkD-42" value="PK" style="shape=partialRectangle;top=0;left=0;bottom=0;fillColor=none;align=left;verticalAlign=top;spacingLeft=4;spacingRight=4;overflow=hidden;rotatable=0;points=[];portConstraint=eastwest;part=1;" vertex="1" connectable="0" parent="S8VaQpaIrWbLrI0OXIkD-41">
          <mxGeometry width="36" height="26" as="geometry"/>
        </mxCell>
        <mxCell id="S8VaQpaIrWbLrI0OXIkD-43" value="settings_module" style="shape=partialRectangle;top=0;left=0;right=0;bottom=0;align=left;verticalAlign=top;fillColor=none;spacingLeft=40;spacingRight=4;overflow=hidden;rotatable=0;points=[[0,0.5],[1,0.5]];portConstraint=eastwest;dropTarget=0;rounded=0;shadow=0;strokeWidth=1;" vertex="1" parent="S8VaQpaIrWbLrI0OXIkD-40">
          <mxGeometry y="52" width="160" height="26" as="geometry"/>
        </mxCell>
        <mxCell id="S8VaQpaIrWbLrI0OXIkD-44" value="FK1" style="shape=partialRectangle;top=0;left=0;bottom=0;fillColor=none;align=left;verticalAlign=top;spacingLeft=4;spacingRight=4;overflow=hidden;rotatable=0;points=[];portConstraint=eastwest;part=1;" vertex="1" connectable="0" parent="S8VaQpaIrWbLrI0OXIkD-43">
          <mxGeometry width="36" height="26" as="geometry"/>
        </mxCell>
        <mxCell id="S8VaQpaIrWbLrI0OXIkD-45" value="settings_account" style="shape=partialRectangle;top=0;left=0;right=0;bottom=0;align=left;verticalAlign=top;fillColor=none;spacingLeft=40;spacingRight=4;overflow=hidden;rotatable=0;points=[[0,0.5],[1,0.5]];portConstraint=eastwest;dropTarget=0;rounded=0;shadow=0;strokeWidth=1;" vertex="1" parent="S8VaQpaIrWbLrI0OXIkD-40">
          <mxGeometry y="78" width="160" height="26" as="geometry"/>
        </mxCell>
        <mxCell id="S8VaQpaIrWbLrI0OXIkD-46" value="FK2" style="shape=partialRectangle;top=0;left=0;bottom=0;fillColor=none;align=left;verticalAlign=top;spacingLeft=4;spacingRight=4;overflow=hidden;rotatable=0;points=[];portConstraint=eastwest;part=1;" vertex="1" connectable="0" parent="S8VaQpaIrWbLrI0OXIkD-45">
          <mxGeometry width="36" height="26" as="geometry"/>
        </mxCell>
        <mxCell id="S8VaQpaIrWbLrI0OXIkD-47" value="settings_group" style="shape=partialRectangle;top=0;left=0;right=0;bottom=0;align=left;verticalAlign=top;fillColor=none;spacingLeft=40;spacingRight=4;overflow=hidden;rotatable=0;points=[[0,0.5],[1,0.5]];portConstraint=eastwest;dropTarget=0;rounded=0;shadow=0;strokeWidth=1;" vertex="1" parent="S8VaQpaIrWbLrI0OXIkD-40">
          <mxGeometry y="104" width="160" height="26" as="geometry"/>
        </mxCell>
        <mxCell id="S8VaQpaIrWbLrI0OXIkD-48" value="FK3" style="shape=partialRectangle;top=0;left=0;bottom=0;fillColor=none;align=left;verticalAlign=top;spacingLeft=4;spacingRight=4;overflow=hidden;rotatable=0;points=[];portConstraint=eastwest;part=1;" vertex="1" connectable="0" parent="S8VaQpaIrWbLrI0OXIkD-47">
          <mxGeometry width="36" height="26" as="geometry"/>
        </mxCell>
        <mxCell id="S8VaQpaIrWbLrI0OXIkD-49" value="...." style="shape=partialRectangle;top=0;left=0;right=0;bottom=0;align=left;verticalAlign=top;fillColor=none;spacingLeft=40;spacingRight=4;overflow=hidden;rotatable=0;points=[[0,0.5],[1,0.5]];portConstraint=eastwest;dropTarget=0;rounded=0;shadow=0;strokeWidth=1;" vertex="1" parent="S8VaQpaIrWbLrI0OXIkD-40">
          <mxGeometry y="130" width="160" height="26" as="geometry"/>
        </mxCell>
        <mxCell id="S8VaQpaIrWbLrI0OXIkD-50" value="" style="shape=partialRectangle;top=0;left=0;bottom=0;fillColor=none;align=left;verticalAlign=top;spacingLeft=4;spacingRight=4;overflow=hidden;rotatable=0;points=[];portConstraint=eastwest;part=1;" vertex="1" connectable="0" parent="S8VaQpaIrWbLrI0OXIkD-49">
          <mxGeometry width="36" height="26" as="geometry"/>
        </mxCell>
        <mxCell id="S8VaQpaIrWbLrI0OXIkD-51" value="" style="edgeStyle=orthogonalEdgeStyle;fontSize=12;html=1;endArrow=ERzeroToOne;endFill=1;startArrow=ERzeroToOne;startFill=1;entryX=-0.012;entryY=0.923;entryDx=0;entryDy=0;exitX=1;exitY=0.5;exitDx=0;exitDy=0;entryPerimeter=0;" edge="1" parent="LLWVm0zqV-prfdSdSp3N-1" source="S8VaQpaIrWbLrI0OXIkD-45" target="S8VaQpaIrWbLrI0OXIkD-1">
          <mxGeometry width="100" height="100" relative="1" as="geometry">
            <mxPoint x="325" y="665.5" as="sourcePoint"/>
            <mxPoint x="365" y="530.5" as="targetPoint"/>
          </mxGeometry>
        </mxCell>
        <mxCell id="S8VaQpaIrWbLrI0OXIkD-52" value="" style="edgeStyle=orthogonalEdgeStyle;fontSize=12;html=1;endArrow=ERzeroToOne;endFill=1;startArrow=ERzeroToOne;startFill=1;exitX=1;exitY=0.5;exitDx=0;exitDy=0;entryX=0;entryY=0.5;entryDx=0;entryDy=0;" edge="1" parent="LLWVm0zqV-prfdSdSp3N-1" source="S8VaQpaIrWbLrI0OXIkD-47" target="S8VaQpaIrWbLrI0OXIkD-6">
          <mxGeometry width="100" height="100" relative="1" as="geometry">
            <mxPoint x="345" y="441" as="sourcePoint"/>
            <mxPoint x="305" y="570" as="targetPoint"/>
          </mxGeometry>
        </mxCell>
        <mxCell id="S8VaQpaIrWbLrI0OXIkD-53" value="" style="edgeStyle=orthogonalEdgeStyle;fontSize=12;html=1;endArrow=ERoneToMany;startArrow=ERmandOne;entryX=0;entryY=0.5;entryDx=0;entryDy=0;exitX=0;exitY=0.5;exitDx=0;exitDy=0;" edge="1" parent="LLWVm0zqV-prfdSdSp3N-1" source="S8VaQpaIrWbLrI0OXIkD-1" target="S8VaQpaIrWbLrI0OXIkD-27">
          <mxGeometry width="100" height="100" relative="1" as="geometry">
            <mxPoint x="405" y="309" as="sourcePoint"/>
            <mxPoint x="-5" y="309" as="targetPoint"/>
          </mxGeometry>
        </mxCell>
        <mxCell id="S8VaQpaIrWbLrI0OXIkD-54" value="group_permission" style="swimlane;fontStyle=1;childLayout=stackLayout;horizontal=1;startSize=26;horizontalStack=0;resizeParent=1;resizeLast=0;collapsible=1;marginBottom=0;rounded=0;shadow=0;strokeWidth=1;fillColor=#dae8fc;strokeColor=#6c8ebf;" vertex="1" parent="LLWVm0zqV-prfdSdSp3N-1">
          <mxGeometry x="345" y="514" width="220" height="104" as="geometry">
            <mxRectangle x="20" y="80" width="160" height="26" as="alternateBounds"/>
          </mxGeometry>
        </mxCell>
        <mxCell id="S8VaQpaIrWbLrI0OXIkD-55" value="group_permission_id" style="shape=partialRectangle;top=0;left=0;right=0;bottom=1;align=left;verticalAlign=top;fillColor=none;spacingLeft=40;spacingRight=4;overflow=hidden;rotatable=0;points=[[0,0.5],[1,0.5]];portConstraint=eastwest;dropTarget=0;rounded=0;shadow=0;strokeWidth=1;fontStyle=4" vertex="1" parent="S8VaQpaIrWbLrI0OXIkD-54">
          <mxGeometry y="26" width="220" height="26" as="geometry"/>
        </mxCell>
        <mxCell id="S8VaQpaIrWbLrI0OXIkD-56" value="PK" style="shape=partialRectangle;top=0;left=0;bottom=0;fillColor=none;align=left;verticalAlign=top;spacingLeft=4;spacingRight=4;overflow=hidden;rotatable=0;points=[];portConstraint=eastwest;part=1;" vertex="1" connectable="0" parent="S8VaQpaIrWbLrI0OXIkD-55">
          <mxGeometry width="36" height="26" as="geometry"/>
        </mxCell>
        <mxCell id="S8VaQpaIrWbLrI0OXIkD-57" value="group_permission_account" style="shape=partialRectangle;top=0;left=0;right=0;bottom=0;align=left;verticalAlign=top;fillColor=none;spacingLeft=40;spacingRight=4;overflow=hidden;rotatable=0;points=[[0,0.5],[1,0.5]];portConstraint=eastwest;dropTarget=0;rounded=0;shadow=0;strokeWidth=1;" vertex="1" parent="S8VaQpaIrWbLrI0OXIkD-54">
          <mxGeometry y="52" width="220" height="26" as="geometry"/>
        </mxCell>
        <mxCell id="S8VaQpaIrWbLrI0OXIkD-58" value="FK1" style="shape=partialRectangle;top=0;left=0;bottom=0;fillColor=none;align=left;verticalAlign=top;spacingLeft=4;spacingRight=4;overflow=hidden;rotatable=0;points=[];portConstraint=eastwest;part=1;" vertex="1" connectable="0" parent="S8VaQpaIrWbLrI0OXIkD-57">
          <mxGeometry width="36" height="26" as="geometry"/>
        </mxCell>
        <mxCell id="S8VaQpaIrWbLrI0OXIkD-59" value="..." style="shape=partialRectangle;top=0;left=0;right=0;bottom=0;align=left;verticalAlign=top;fillColor=none;spacingLeft=40;spacingRight=4;overflow=hidden;rotatable=0;points=[[0,0.5],[1,0.5]];portConstraint=eastwest;dropTarget=0;rounded=0;shadow=0;strokeWidth=1;" vertex="1" parent="S8VaQpaIrWbLrI0OXIkD-54">
          <mxGeometry y="78" width="220" height="26" as="geometry"/>
        </mxCell>
        <mxCell id="S8VaQpaIrWbLrI0OXIkD-60" value="" style="shape=partialRectangle;top=0;left=0;bottom=0;fillColor=none;align=left;verticalAlign=top;spacingLeft=4;spacingRight=4;overflow=hidden;rotatable=0;points=[];portConstraint=eastwest;part=1;" vertex="1" connectable="0" parent="S8VaQpaIrWbLrI0OXIkD-59">
          <mxGeometry width="36" height="26" as="geometry"/>
        </mxCell>
        <mxCell id="S8VaQpaIrWbLrI0OXIkD-61" value="" style="edgeStyle=orthogonalEdgeStyle;fontSize=12;html=1;endArrow=ERoneToMany;startArrow=ERmandOne;entryX=1;entryY=0.5;entryDx=0;entryDy=0;exitX=1;exitY=0.5;exitDx=0;exitDy=0;" edge="1" parent="LLWVm0zqV-prfdSdSp3N-1" source="S8VaQpaIrWbLrI0OXIkD-6" target="S8VaQpaIrWbLrI0OXIkD-57">
          <mxGeometry width="100" height="100" relative="1" as="geometry">
            <mxPoint x="405" y="309" as="sourcePoint"/>
            <mxPoint x="345" y="186" as="targetPoint"/>
          </mxGeometry>
        </mxCell>
        <mxCell id="S8VaQpaIrWbLrI0OXIkD-62" value="" style="edgeStyle=orthogonalEdgeStyle;fontSize=12;html=1;endArrow=ERmandOne;startArrow=ERmandOne;entryX=0;entryY=0.5;entryDx=0;entryDy=0;exitX=1;exitY=0.5;exitDx=0;exitDy=0;" edge="1" parent="LLWVm0zqV-prfdSdSp3N-1" source="S8VaQpaIrWbLrI0OXIkD-20" target="S8VaQpaIrWbLrI0OXIkD-1">
          <mxGeometry width="100" height="100" relative="1" as="geometry">
            <mxPoint x="565" y="309" as="sourcePoint"/>
            <mxPoint x="625" y="381" as="targetPoint"/>
          </mxGeometry>
        </mxCell>
      </root>
    </mxGraphModel>
  </diagram>
  <diagram id="iXRqusqnaeXdXXO6QmJw" name="profile">
    <mxGraphModel dx="2062" dy="781" grid="1" gridSize="10" guides="1" tooltips="1" connect="1" arrows="1" fold="1" page="1" pageScale="1" pageWidth="850" pageHeight="1100" math="0" shadow="0">
      <root>
        <mxCell id="u8e3plsaaYBApsJ_WjYj-0"/>
        <mxCell id="u8e3plsaaYBApsJ_WjYj-1" parent="u8e3plsaaYBApsJ_WjYj-0"/>
        <mxCell id="FX5ICYpklG7Mc6WhBnF2-0" value="account" style="swimlane;fontStyle=1;childLayout=stackLayout;horizontal=1;startSize=26;horizontalStack=0;resizeParent=1;resizeLast=0;collapsible=1;marginBottom=0;rounded=0;shadow=0;strokeWidth=1;fillColor=#f8cecc;strokeColor=#b85450;" vertex="1" parent="u8e3plsaaYBApsJ_WjYj-1">
          <mxGeometry x="353.5" y="71" width="160" height="78" as="geometry">
            <mxRectangle x="20" y="80" width="160" height="26" as="alternateBounds"/>
          </mxGeometry>
        </mxCell>
        <mxCell id="FX5ICYpklG7Mc6WhBnF2-1" value="account_id" style="shape=partialRectangle;top=0;left=0;right=0;bottom=1;align=left;verticalAlign=top;fillColor=none;spacingLeft=40;spacingRight=4;overflow=hidden;rotatable=0;points=[[0,0.5],[1,0.5]];portConstraint=eastwest;dropTarget=0;rounded=0;shadow=0;strokeWidth=1;fontStyle=4" vertex="1" parent="FX5ICYpklG7Mc6WhBnF2-0">
          <mxGeometry y="26" width="160" height="26" as="geometry"/>
        </mxCell>
        <mxCell id="FX5ICYpklG7Mc6WhBnF2-2" value="PK" style="shape=partialRectangle;top=0;left=0;bottom=0;fillColor=none;align=left;verticalAlign=top;spacingLeft=4;spacingRight=4;overflow=hidden;rotatable=0;points=[];portConstraint=eastwest;part=1;" vertex="1" connectable="0" parent="FX5ICYpklG7Mc6WhBnF2-1">
          <mxGeometry width="36" height="26" as="geometry"/>
        </mxCell>
        <mxCell id="FX5ICYpklG7Mc6WhBnF2-3" value="..." style="shape=partialRectangle;top=0;left=0;right=0;bottom=0;align=left;verticalAlign=top;fillColor=none;spacingLeft=40;spacingRight=4;overflow=hidden;rotatable=0;points=[[0,0.5],[1,0.5]];portConstraint=eastwest;dropTarget=0;rounded=0;shadow=0;strokeWidth=1;" vertex="1" parent="FX5ICYpklG7Mc6WhBnF2-0">
          <mxGeometry y="52" width="160" height="26" as="geometry"/>
        </mxCell>
        <mxCell id="FX5ICYpklG7Mc6WhBnF2-4" value="" style="shape=partialRectangle;top=0;left=0;bottom=0;fillColor=none;align=left;verticalAlign=top;spacingLeft=4;spacingRight=4;overflow=hidden;rotatable=0;points=[];portConstraint=eastwest;part=1;" vertex="1" connectable="0" parent="FX5ICYpklG7Mc6WhBnF2-3">
          <mxGeometry width="36" height="26" as="geometry"/>
        </mxCell>
        <mxCell id="F9rxLwzg1stIs0CT0WlM-0" value="profile_account" style="swimlane;fontStyle=1;childLayout=stackLayout;horizontal=1;startSize=26;horizontalStack=0;resizeParent=1;resizeLast=0;collapsible=1;marginBottom=0;rounded=0;shadow=0;strokeWidth=1;fillColor=#dae8fc;strokeColor=#6c8ebf;" vertex="1" parent="u8e3plsaaYBApsJ_WjYj-1">
          <mxGeometry x="338.5" y="168" width="195" height="130" as="geometry">
            <mxRectangle x="260" y="80" width="160" height="26" as="alternateBounds"/>
          </mxGeometry>
        </mxCell>
        <mxCell id="F9rxLwzg1stIs0CT0WlM-1" value="profile_account_id" style="shape=partialRectangle;top=0;left=0;right=0;bottom=1;align=left;verticalAlign=top;fillColor=none;spacingLeft=40;spacingRight=4;overflow=hidden;rotatable=0;points=[[0,0.5],[1,0.5]];portConstraint=eastwest;dropTarget=0;rounded=0;shadow=0;strokeWidth=1;fontStyle=4" vertex="1" parent="F9rxLwzg1stIs0CT0WlM-0">
          <mxGeometry y="26" width="195" height="26" as="geometry"/>
        </mxCell>
        <mxCell id="F9rxLwzg1stIs0CT0WlM-2" value="PK" style="shape=partialRectangle;top=0;left=0;bottom=0;fillColor=none;align=left;verticalAlign=top;spacingLeft=4;spacingRight=4;overflow=hidden;rotatable=0;points=[];portConstraint=eastwest;part=1;" vertex="1" connectable="0" parent="F9rxLwzg1stIs0CT0WlM-1">
          <mxGeometry width="36" height="26" as="geometry"/>
        </mxCell>
        <mxCell id="F9rxLwzg1stIs0CT0WlM-3" value="profile_account_account" style="shape=partialRectangle;top=0;left=0;right=0;bottom=0;align=left;verticalAlign=top;fillColor=none;spacingLeft=40;spacingRight=4;overflow=hidden;rotatable=0;points=[[0,0.5],[1,0.5]];portConstraint=eastwest;dropTarget=0;rounded=0;shadow=0;strokeWidth=1;" vertex="1" parent="F9rxLwzg1stIs0CT0WlM-0">
          <mxGeometry y="52" width="195" height="26" as="geometry"/>
        </mxCell>
        <mxCell id="F9rxLwzg1stIs0CT0WlM-4" value="FK1" style="shape=partialRectangle;top=0;left=0;bottom=0;fillColor=none;align=left;verticalAlign=top;spacingLeft=4;spacingRight=4;overflow=hidden;rotatable=0;points=[];portConstraint=eastwest;part=1;" vertex="1" connectable="0" parent="F9rxLwzg1stIs0CT0WlM-3">
          <mxGeometry width="36" height="26" as="geometry"/>
        </mxCell>
        <mxCell id="eO6ki24oONc-YyMHAUC3-17" value="profile_account_image" style="shape=partialRectangle;top=0;left=0;right=0;bottom=0;align=left;verticalAlign=top;fillColor=none;spacingLeft=40;spacingRight=4;overflow=hidden;rotatable=0;points=[[0,0.5],[1,0.5]];portConstraint=eastwest;dropTarget=0;rounded=0;shadow=0;strokeWidth=1;" vertex="1" parent="F9rxLwzg1stIs0CT0WlM-0">
          <mxGeometry y="78" width="195" height="26" as="geometry"/>
        </mxCell>
        <mxCell id="eO6ki24oONc-YyMHAUC3-18" value="FK2" style="shape=partialRectangle;top=0;left=0;bottom=0;fillColor=none;align=left;verticalAlign=top;spacingLeft=4;spacingRight=4;overflow=hidden;rotatable=0;points=[];portConstraint=eastwest;part=1;" vertex="1" connectable="0" parent="eO6ki24oONc-YyMHAUC3-17">
          <mxGeometry width="36" height="26" as="geometry"/>
        </mxCell>
        <mxCell id="F9rxLwzg1stIs0CT0WlM-5" value="..." style="shape=partialRectangle;top=0;left=0;right=0;bottom=0;align=left;verticalAlign=top;fillColor=none;spacingLeft=40;spacingRight=4;overflow=hidden;rotatable=0;points=[[0,0.5],[1,0.5]];portConstraint=eastwest;dropTarget=0;rounded=0;shadow=0;strokeWidth=1;" vertex="1" parent="F9rxLwzg1stIs0CT0WlM-0">
          <mxGeometry y="104" width="195" height="26" as="geometry"/>
        </mxCell>
        <mxCell id="F9rxLwzg1stIs0CT0WlM-6" value="" style="shape=partialRectangle;top=0;left=0;bottom=0;fillColor=none;align=left;verticalAlign=top;spacingLeft=4;spacingRight=4;overflow=hidden;rotatable=0;points=[];portConstraint=eastwest;part=1;" vertex="1" connectable="0" parent="F9rxLwzg1stIs0CT0WlM-5">
          <mxGeometry width="36" height="26" as="geometry"/>
        </mxCell>
        <mxCell id="F9rxLwzg1stIs0CT0WlM-7" value="profile_contact" style="swimlane;fontStyle=1;childLayout=stackLayout;horizontal=1;startSize=26;horizontalStack=0;resizeParent=1;resizeLast=0;collapsible=1;marginBottom=0;rounded=0;shadow=0;strokeWidth=1;fillColor=#dae8fc;strokeColor=#6c8ebf;" vertex="1" parent="u8e3plsaaYBApsJ_WjYj-1">
          <mxGeometry x="338.5" y="320" width="195" height="104" as="geometry">
            <mxRectangle x="260" y="80" width="160" height="26" as="alternateBounds"/>
          </mxGeometry>
        </mxCell>
        <mxCell id="F9rxLwzg1stIs0CT0WlM-8" value="profile_contact_id" style="shape=partialRectangle;top=0;left=0;right=0;bottom=1;align=left;verticalAlign=top;fillColor=none;spacingLeft=40;spacingRight=4;overflow=hidden;rotatable=0;points=[[0,0.5],[1,0.5]];portConstraint=eastwest;dropTarget=0;rounded=0;shadow=0;strokeWidth=1;fontStyle=4" vertex="1" parent="F9rxLwzg1stIs0CT0WlM-7">
          <mxGeometry y="26" width="195" height="26" as="geometry"/>
        </mxCell>
        <mxCell id="F9rxLwzg1stIs0CT0WlM-9" value="PK" style="shape=partialRectangle;top=0;left=0;bottom=0;fillColor=none;align=left;verticalAlign=top;spacingLeft=4;spacingRight=4;overflow=hidden;rotatable=0;points=[];portConstraint=eastwest;part=1;" vertex="1" connectable="0" parent="F9rxLwzg1stIs0CT0WlM-8">
          <mxGeometry width="36" height="26" as="geometry"/>
        </mxCell>
        <mxCell id="F9rxLwzg1stIs0CT0WlM-10" value="profile_contact_profile" style="shape=partialRectangle;top=0;left=0;right=0;bottom=0;align=left;verticalAlign=top;fillColor=none;spacingLeft=40;spacingRight=4;overflow=hidden;rotatable=0;points=[[0,0.5],[1,0.5]];portConstraint=eastwest;dropTarget=0;rounded=0;shadow=0;strokeWidth=1;" vertex="1" parent="F9rxLwzg1stIs0CT0WlM-7">
          <mxGeometry y="52" width="195" height="26" as="geometry"/>
        </mxCell>
        <mxCell id="F9rxLwzg1stIs0CT0WlM-11" value="FK1" style="shape=partialRectangle;top=0;left=0;bottom=0;fillColor=none;align=left;verticalAlign=top;spacingLeft=4;spacingRight=4;overflow=hidden;rotatable=0;points=[];portConstraint=eastwest;part=1;" vertex="1" connectable="0" parent="F9rxLwzg1stIs0CT0WlM-10">
          <mxGeometry width="36" height="26" as="geometry"/>
        </mxCell>
        <mxCell id="F9rxLwzg1stIs0CT0WlM-12" value="..." style="shape=partialRectangle;top=0;left=0;right=0;bottom=0;align=left;verticalAlign=top;fillColor=none;spacingLeft=40;spacingRight=4;overflow=hidden;rotatable=0;points=[[0,0.5],[1,0.5]];portConstraint=eastwest;dropTarget=0;rounded=0;shadow=0;strokeWidth=1;" vertex="1" parent="F9rxLwzg1stIs0CT0WlM-7">
          <mxGeometry y="78" width="195" height="26" as="geometry"/>
        </mxCell>
        <mxCell id="F9rxLwzg1stIs0CT0WlM-13" value="" style="shape=partialRectangle;top=0;left=0;bottom=0;fillColor=none;align=left;verticalAlign=top;spacingLeft=4;spacingRight=4;overflow=hidden;rotatable=0;points=[];portConstraint=eastwest;part=1;" vertex="1" connectable="0" parent="F9rxLwzg1stIs0CT0WlM-12">
          <mxGeometry width="36" height="26" as="geometry"/>
        </mxCell>
        <mxCell id="F9rxLwzg1stIs0CT0WlM-14" value="profile_contact_element" style="swimlane;fontStyle=1;childLayout=stackLayout;horizontal=1;startSize=26;horizontalStack=0;resizeParent=1;resizeLast=0;collapsible=1;marginBottom=0;rounded=0;shadow=0;strokeWidth=1;fillColor=#dae8fc;strokeColor=#6c8ebf;" vertex="1" parent="u8e3plsaaYBApsJ_WjYj-1">
          <mxGeometry x="10" y="310" width="250" height="104" as="geometry">
            <mxRectangle x="260" y="80" width="160" height="26" as="alternateBounds"/>
          </mxGeometry>
        </mxCell>
        <mxCell id="F9rxLwzg1stIs0CT0WlM-15" value="profile_contact_element_id" style="shape=partialRectangle;top=0;left=0;right=0;bottom=1;align=left;verticalAlign=top;fillColor=none;spacingLeft=40;spacingRight=4;overflow=hidden;rotatable=0;points=[[0,0.5],[1,0.5]];portConstraint=eastwest;dropTarget=0;rounded=0;shadow=0;strokeWidth=1;fontStyle=4" vertex="1" parent="F9rxLwzg1stIs0CT0WlM-14">
          <mxGeometry y="26" width="250" height="26" as="geometry"/>
        </mxCell>
        <mxCell id="F9rxLwzg1stIs0CT0WlM-16" value="PK" style="shape=partialRectangle;top=0;left=0;bottom=0;fillColor=none;align=left;verticalAlign=top;spacingLeft=4;spacingRight=4;overflow=hidden;rotatable=0;points=[];portConstraint=eastwest;part=1;" vertex="1" connectable="0" parent="F9rxLwzg1stIs0CT0WlM-15">
          <mxGeometry width="36" height="26" as="geometry"/>
        </mxCell>
        <mxCell id="F9rxLwzg1stIs0CT0WlM-17" value="profile_contact_element_contact" style="shape=partialRectangle;top=0;left=0;right=0;bottom=0;align=left;verticalAlign=top;fillColor=none;spacingLeft=40;spacingRight=4;overflow=hidden;rotatable=0;points=[[0,0.5],[1,0.5]];portConstraint=eastwest;dropTarget=0;rounded=0;shadow=0;strokeWidth=1;" vertex="1" parent="F9rxLwzg1stIs0CT0WlM-14">
          <mxGeometry y="52" width="250" height="26" as="geometry"/>
        </mxCell>
        <mxCell id="F9rxLwzg1stIs0CT0WlM-18" value="FK1" style="shape=partialRectangle;top=0;left=0;bottom=0;fillColor=none;align=left;verticalAlign=top;spacingLeft=4;spacingRight=4;overflow=hidden;rotatable=0;points=[];portConstraint=eastwest;part=1;" vertex="1" connectable="0" parent="F9rxLwzg1stIs0CT0WlM-17">
          <mxGeometry width="36" height="26" as="geometry"/>
        </mxCell>
        <mxCell id="F9rxLwzg1stIs0CT0WlM-19" value="..." style="shape=partialRectangle;top=0;left=0;right=0;bottom=0;align=left;verticalAlign=top;fillColor=none;spacingLeft=40;spacingRight=4;overflow=hidden;rotatable=0;points=[[0,0.5],[1,0.5]];portConstraint=eastwest;dropTarget=0;rounded=0;shadow=0;strokeWidth=1;" vertex="1" parent="F9rxLwzg1stIs0CT0WlM-14">
          <mxGeometry y="78" width="250" height="26" as="geometry"/>
        </mxCell>
        <mxCell id="F9rxLwzg1stIs0CT0WlM-20" value="" style="shape=partialRectangle;top=0;left=0;bottom=0;fillColor=none;align=left;verticalAlign=top;spacingLeft=4;spacingRight=4;overflow=hidden;rotatable=0;points=[];portConstraint=eastwest;part=1;" vertex="1" connectable="0" parent="F9rxLwzg1stIs0CT0WlM-19">
          <mxGeometry width="36" height="26" as="geometry"/>
        </mxCell>
        <mxCell id="F9rxLwzg1stIs0CT0WlM-21" value="profile_contactelement" style="swimlane;fontStyle=1;childLayout=stackLayout;horizontal=1;startSize=26;horizontalStack=0;resizeParent=1;resizeLast=0;collapsible=1;marginBottom=0;rounded=0;shadow=0;strokeWidth=1;fillColor=#dae8fc;strokeColor=#6c8ebf;" vertex="1" parent="u8e3plsaaYBApsJ_WjYj-1">
          <mxGeometry x="600" y="190" width="250" height="104" as="geometry">
            <mxRectangle x="260" y="80" width="160" height="26" as="alternateBounds"/>
          </mxGeometry>
        </mxCell>
        <mxCell id="F9rxLwzg1stIs0CT0WlM-22" value="profile_contactelement_id" style="shape=partialRectangle;top=0;left=0;right=0;bottom=1;align=left;verticalAlign=top;fillColor=none;spacingLeft=40;spacingRight=4;overflow=hidden;rotatable=0;points=[[0,0.5],[1,0.5]];portConstraint=eastwest;dropTarget=0;rounded=0;shadow=0;strokeWidth=1;fontStyle=4" vertex="1" parent="F9rxLwzg1stIs0CT0WlM-21">
          <mxGeometry y="26" width="250" height="26" as="geometry"/>
        </mxCell>
        <mxCell id="F9rxLwzg1stIs0CT0WlM-23" value="PK" style="shape=partialRectangle;top=0;left=0;bottom=0;fillColor=none;align=left;verticalAlign=top;spacingLeft=4;spacingRight=4;overflow=hidden;rotatable=0;points=[];portConstraint=eastwest;part=1;" vertex="1" connectable="0" parent="F9rxLwzg1stIs0CT0WlM-22">
          <mxGeometry width="36" height="26" as="geometry"/>
        </mxCell>
        <mxCell id="F9rxLwzg1stIs0CT0WlM-24" value="profile_contactelement_account" style="shape=partialRectangle;top=0;left=0;right=0;bottom=0;align=left;verticalAlign=top;fillColor=none;spacingLeft=40;spacingRight=4;overflow=hidden;rotatable=0;points=[[0,0.5],[1,0.5]];portConstraint=eastwest;dropTarget=0;rounded=0;shadow=0;strokeWidth=1;" vertex="1" parent="F9rxLwzg1stIs0CT0WlM-21">
          <mxGeometry y="52" width="250" height="26" as="geometry"/>
        </mxCell>
        <mxCell id="F9rxLwzg1stIs0CT0WlM-25" value="FK1" style="shape=partialRectangle;top=0;left=0;bottom=0;fillColor=none;align=left;verticalAlign=top;spacingLeft=4;spacingRight=4;overflow=hidden;rotatable=0;points=[];portConstraint=eastwest;part=1;" vertex="1" connectable="0" parent="F9rxLwzg1stIs0CT0WlM-24">
          <mxGeometry width="36" height="26" as="geometry"/>
        </mxCell>
        <mxCell id="F9rxLwzg1stIs0CT0WlM-26" value="..." style="shape=partialRectangle;top=0;left=0;right=0;bottom=0;align=left;verticalAlign=top;fillColor=none;spacingLeft=40;spacingRight=4;overflow=hidden;rotatable=0;points=[[0,0.5],[1,0.5]];portConstraint=eastwest;dropTarget=0;rounded=0;shadow=0;strokeWidth=1;" vertex="1" parent="F9rxLwzg1stIs0CT0WlM-21">
          <mxGeometry y="78" width="250" height="26" as="geometry"/>
        </mxCell>
        <mxCell id="F9rxLwzg1stIs0CT0WlM-27" value="" style="shape=partialRectangle;top=0;left=0;bottom=0;fillColor=none;align=left;verticalAlign=top;spacingLeft=4;spacingRight=4;overflow=hidden;rotatable=0;points=[];portConstraint=eastwest;part=1;" vertex="1" connectable="0" parent="F9rxLwzg1stIs0CT0WlM-26">
          <mxGeometry width="36" height="26" as="geometry"/>
        </mxCell>
        <mxCell id="F9rxLwzg1stIs0CT0WlM-28" value="profile_address" style="swimlane;fontStyle=1;childLayout=stackLayout;horizontal=1;startSize=26;horizontalStack=0;resizeParent=1;resizeLast=0;collapsible=1;marginBottom=0;rounded=0;shadow=0;strokeWidth=1;fillColor=#dae8fc;strokeColor=#6c8ebf;" vertex="1" parent="u8e3plsaaYBApsJ_WjYj-1">
          <mxGeometry x="600" y="324" width="195" height="130" as="geometry">
            <mxRectangle x="260" y="80" width="160" height="26" as="alternateBounds"/>
          </mxGeometry>
        </mxCell>
        <mxCell id="F9rxLwzg1stIs0CT0WlM-29" value="profile_address_id" style="shape=partialRectangle;top=0;left=0;right=0;bottom=1;align=left;verticalAlign=top;fillColor=none;spacingLeft=40;spacingRight=4;overflow=hidden;rotatable=0;points=[[0,0.5],[1,0.5]];portConstraint=eastwest;dropTarget=0;rounded=0;shadow=0;strokeWidth=1;fontStyle=4" vertex="1" parent="F9rxLwzg1stIs0CT0WlM-28">
          <mxGeometry y="26" width="195" height="26" as="geometry"/>
        </mxCell>
        <mxCell id="F9rxLwzg1stIs0CT0WlM-30" value="PK" style="shape=partialRectangle;top=0;left=0;bottom=0;fillColor=none;align=left;verticalAlign=top;spacingLeft=4;spacingRight=4;overflow=hidden;rotatable=0;points=[];portConstraint=eastwest;part=1;" vertex="1" connectable="0" parent="F9rxLwzg1stIs0CT0WlM-29">
          <mxGeometry width="36" height="26" as="geometry"/>
        </mxCell>
        <mxCell id="F9rxLwzg1stIs0CT0WlM-31" value="profile_address_profile" style="shape=partialRectangle;top=0;left=0;right=0;bottom=0;align=left;verticalAlign=top;fillColor=none;spacingLeft=40;spacingRight=4;overflow=hidden;rotatable=0;points=[[0,0.5],[1,0.5]];portConstraint=eastwest;dropTarget=0;rounded=0;shadow=0;strokeWidth=1;" vertex="1" parent="F9rxLwzg1stIs0CT0WlM-28">
          <mxGeometry y="52" width="195" height="26" as="geometry"/>
        </mxCell>
        <mxCell id="F9rxLwzg1stIs0CT0WlM-32" value="FK1" style="shape=partialRectangle;top=0;left=0;bottom=0;fillColor=none;align=left;verticalAlign=top;spacingLeft=4;spacingRight=4;overflow=hidden;rotatable=0;points=[];portConstraint=eastwest;part=1;" vertex="1" connectable="0" parent="F9rxLwzg1stIs0CT0WlM-31">
          <mxGeometry width="36" height="26" as="geometry"/>
        </mxCell>
        <mxCell id="eO6ki24oONc-YyMHAUC3-2" value="profile_address_address" style="shape=partialRectangle;top=0;left=0;right=0;bottom=0;align=left;verticalAlign=top;fillColor=none;spacingLeft=40;spacingRight=4;overflow=hidden;rotatable=0;points=[[0,0.5],[1,0.5]];portConstraint=eastwest;dropTarget=0;rounded=0;shadow=0;strokeWidth=1;" vertex="1" parent="F9rxLwzg1stIs0CT0WlM-28">
          <mxGeometry y="78" width="195" height="26" as="geometry"/>
        </mxCell>
        <mxCell id="eO6ki24oONc-YyMHAUC3-3" value="FK2" style="shape=partialRectangle;top=0;left=0;bottom=0;fillColor=none;align=left;verticalAlign=top;spacingLeft=4;spacingRight=4;overflow=hidden;rotatable=0;points=[];portConstraint=eastwest;part=1;" vertex="1" connectable="0" parent="eO6ki24oONc-YyMHAUC3-2">
          <mxGeometry width="36" height="26" as="geometry"/>
        </mxCell>
        <mxCell id="F9rxLwzg1stIs0CT0WlM-33" value="..." style="shape=partialRectangle;top=0;left=0;right=0;bottom=0;align=left;verticalAlign=top;fillColor=none;spacingLeft=40;spacingRight=4;overflow=hidden;rotatable=0;points=[[0,0.5],[1,0.5]];portConstraint=eastwest;dropTarget=0;rounded=0;shadow=0;strokeWidth=1;" vertex="1" parent="F9rxLwzg1stIs0CT0WlM-28">
          <mxGeometry y="104" width="195" height="26" as="geometry"/>
        </mxCell>
        <mxCell id="F9rxLwzg1stIs0CT0WlM-34" value="" style="shape=partialRectangle;top=0;left=0;bottom=0;fillColor=none;align=left;verticalAlign=top;spacingLeft=4;spacingRight=4;overflow=hidden;rotatable=0;points=[];portConstraint=eastwest;part=1;" vertex="1" connectable="0" parent="F9rxLwzg1stIs0CT0WlM-33">
          <mxGeometry width="36" height="26" as="geometry"/>
        </mxCell>
        <mxCell id="EU3e5XZpTHXp0RosWg3A-0" value="country" style="swimlane;fontStyle=1;childLayout=stackLayout;horizontal=1;startSize=26;horizontalStack=0;resizeParent=1;resizeLast=0;collapsible=1;marginBottom=0;rounded=0;shadow=0;strokeWidth=1;fillColor=#e1d5e7;strokeColor=#9673a6;labelBackgroundColor=none;" vertex="1" parent="u8e3plsaaYBApsJ_WjYj-1">
          <mxGeometry x="363.5" y="610" width="160" height="80" as="geometry">
            <mxRectangle x="260" y="80" width="160" height="26" as="alternateBounds"/>
          </mxGeometry>
        </mxCell>
        <mxCell id="EU3e5XZpTHXp0RosWg3A-1" value="country_id" style="shape=partialRectangle;top=0;left=0;right=0;bottom=1;align=left;verticalAlign=top;fillColor=none;spacingLeft=40;spacingRight=4;overflow=hidden;rotatable=0;points=[[0,0.5],[1,0.5]];portConstraint=eastwest;dropTarget=0;rounded=0;shadow=0;strokeWidth=1;fontStyle=4" vertex="1" parent="EU3e5XZpTHXp0RosWg3A-0">
          <mxGeometry y="26" width="160" height="26" as="geometry"/>
        </mxCell>
        <mxCell id="EU3e5XZpTHXp0RosWg3A-2" value="PK" style="shape=partialRectangle;top=0;left=0;bottom=0;fillColor=none;align=left;verticalAlign=top;spacingLeft=4;spacingRight=4;overflow=hidden;rotatable=0;points=[];portConstraint=eastwest;part=1;" vertex="1" connectable="0" parent="EU3e5XZpTHXp0RosWg3A-1">
          <mxGeometry width="36" height="26" as="geometry"/>
        </mxCell>
        <mxCell id="EU3e5XZpTHXp0RosWg3A-3" value="..." style="shape=partialRectangle;top=0;left=0;right=0;bottom=0;align=left;verticalAlign=top;fillColor=none;spacingLeft=40;spacingRight=4;overflow=hidden;rotatable=0;points=[[0,0.5],[1,0.5]];portConstraint=eastwest;dropTarget=0;rounded=0;shadow=0;strokeWidth=1;" vertex="1" parent="EU3e5XZpTHXp0RosWg3A-0">
          <mxGeometry y="52" width="160" height="28" as="geometry"/>
        </mxCell>
        <mxCell id="EU3e5XZpTHXp0RosWg3A-4" value="" style="shape=partialRectangle;top=0;left=0;bottom=0;fillColor=none;align=left;verticalAlign=top;spacingLeft=4;spacingRight=4;overflow=hidden;rotatable=0;points=[];portConstraint=eastwest;part=1;" vertex="1" connectable="0" parent="EU3e5XZpTHXp0RosWg3A-3">
          <mxGeometry width="36" height="28" as="geometry"/>
        </mxCell>
        <mxCell id="EU3e5XZpTHXp0RosWg3A-5" value="address" style="swimlane;fontStyle=1;childLayout=stackLayout;horizontal=1;startSize=26;horizontalStack=0;resizeParent=1;resizeLast=0;collapsible=1;marginBottom=0;rounded=0;shadow=0;strokeWidth=1;fillColor=#e1d5e7;strokeColor=#9673a6;" vertex="1" parent="u8e3plsaaYBApsJ_WjYj-1">
          <mxGeometry x="363.5" y="492" width="150" height="104" as="geometry">
            <mxRectangle x="260" y="80" width="160" height="26" as="alternateBounds"/>
          </mxGeometry>
        </mxCell>
        <mxCell id="EU3e5XZpTHXp0RosWg3A-6" value="address_id" style="shape=partialRectangle;top=0;left=0;right=0;bottom=1;align=left;verticalAlign=top;fillColor=none;spacingLeft=40;spacingRight=4;overflow=hidden;rotatable=0;points=[[0,0.5],[1,0.5]];portConstraint=eastwest;dropTarget=0;rounded=0;shadow=0;strokeWidth=1;fontStyle=4" vertex="1" parent="EU3e5XZpTHXp0RosWg3A-5">
          <mxGeometry y="26" width="150" height="26" as="geometry"/>
        </mxCell>
        <mxCell id="EU3e5XZpTHXp0RosWg3A-7" value="PK" style="shape=partialRectangle;top=0;left=0;bottom=0;fillColor=none;align=left;verticalAlign=top;spacingLeft=4;spacingRight=4;overflow=hidden;rotatable=0;points=[];portConstraint=eastwest;part=1;" vertex="1" connectable="0" parent="EU3e5XZpTHXp0RosWg3A-6">
          <mxGeometry width="36" height="26" as="geometry"/>
        </mxCell>
        <mxCell id="EU3e5XZpTHXp0RosWg3A-8" value="address_country" style="shape=partialRectangle;top=0;left=0;right=0;bottom=0;align=left;verticalAlign=top;fillColor=none;spacingLeft=40;spacingRight=4;overflow=hidden;rotatable=0;points=[[0,0.5],[1,0.5]];portConstraint=eastwest;dropTarget=0;rounded=0;shadow=0;strokeWidth=1;" vertex="1" parent="EU3e5XZpTHXp0RosWg3A-5">
          <mxGeometry y="52" width="150" height="26" as="geometry"/>
        </mxCell>
        <mxCell id="EU3e5XZpTHXp0RosWg3A-9" value="FK1" style="shape=partialRectangle;top=0;left=0;bottom=0;fillColor=none;align=left;verticalAlign=top;spacingLeft=4;spacingRight=4;overflow=hidden;rotatable=0;points=[];portConstraint=eastwest;part=1;" vertex="1" connectable="0" parent="EU3e5XZpTHXp0RosWg3A-8">
          <mxGeometry width="36" height="26" as="geometry"/>
        </mxCell>
        <mxCell id="EU3e5XZpTHXp0RosWg3A-10" value="..." style="shape=partialRectangle;top=0;left=0;right=0;bottom=0;align=left;verticalAlign=top;fillColor=none;spacingLeft=40;spacingRight=4;overflow=hidden;rotatable=0;points=[[0,0.5],[1,0.5]];portConstraint=eastwest;dropTarget=0;rounded=0;shadow=0;strokeWidth=1;" vertex="1" parent="EU3e5XZpTHXp0RosWg3A-5">
          <mxGeometry y="78" width="150" height="26" as="geometry"/>
        </mxCell>
        <mxCell id="EU3e5XZpTHXp0RosWg3A-11" value="" style="shape=partialRectangle;top=0;left=0;bottom=0;fillColor=none;align=left;verticalAlign=top;spacingLeft=4;spacingRight=4;overflow=hidden;rotatable=0;points=[];portConstraint=eastwest;part=1;" vertex="1" connectable="0" parent="EU3e5XZpTHXp0RosWg3A-10">
          <mxGeometry width="36" height="26" as="geometry"/>
        </mxCell>
        <mxCell id="EU3e5XZpTHXp0RosWg3A-12" value="" style="edgeStyle=orthogonalEdgeStyle;fontSize=12;html=1;endArrow=ERoneToMany;startArrow=ERmandOne;entryX=1;entryY=0.5;entryDx=0;entryDy=0;exitX=1;exitY=0.5;exitDx=0;exitDy=0;" edge="1" parent="u8e3plsaaYBApsJ_WjYj-1" source="EU3e5XZpTHXp0RosWg3A-1" target="EU3e5XZpTHXp0RosWg3A-8">
          <mxGeometry width="100" height="100" relative="1" as="geometry">
            <mxPoint x="-259" y="953" as="sourcePoint"/>
            <mxPoint x="-969" y="702" as="targetPoint"/>
          </mxGeometry>
        </mxCell>
        <mxCell id="iClVirVl6B2hN8MFMqUm-0" value="Admin Module" style="rounded=0;whiteSpace=wrap;html=1;fillColor=#f8cecc;strokeColor=#b85450;" vertex="1" parent="u8e3plsaaYBApsJ_WjYj-1">
          <mxGeometry x="730" y="527" width="120" height="40" as="geometry"/>
        </mxCell>
        <mxCell id="iClVirVl6B2hN8MFMqUm-1" value="Profile Module" style="rounded=0;whiteSpace=wrap;html=1;fillColor=#dae8fc;strokeColor=#6c8ebf;" vertex="1" parent="u8e3plsaaYBApsJ_WjYj-1">
          <mxGeometry x="730" y="475" width="120" height="40" as="geometry"/>
        </mxCell>
        <mxCell id="iClVirVl6B2hN8MFMqUm-2" value="Address Module" style="rounded=0;whiteSpace=wrap;html=1;fillColor=#e1d5e7;strokeColor=#9673a6;" vertex="1" parent="u8e3plsaaYBApsJ_WjYj-1">
          <mxGeometry x="730" y="585" width="120" height="40" as="geometry"/>
        </mxCell>
        <mxCell id="WvTI9kPOI-r7O6_01SwC-0" value="" style="edgeStyle=orthogonalEdgeStyle;fontSize=12;html=1;endArrow=ERoneToMany;startArrow=ERmandOne;entryX=1;entryY=0.5;entryDx=0;entryDy=0;exitX=1;exitY=0.5;exitDx=0;exitDy=0;" edge="1" parent="u8e3plsaaYBApsJ_WjYj-1" source="FX5ICYpklG7Mc6WhBnF2-1" target="F9rxLwzg1stIs0CT0WlM-3">
          <mxGeometry width="100" height="100" relative="1" as="geometry">
            <mxPoint x="438.5" y="359" as="sourcePoint"/>
            <mxPoint x="378.5" y="236" as="targetPoint"/>
          </mxGeometry>
        </mxCell>
        <mxCell id="WvTI9kPOI-r7O6_01SwC-1" value="" style="edgeStyle=orthogonalEdgeStyle;fontSize=12;html=1;endArrow=ERoneToMany;startArrow=ERmandOne;entryX=0;entryY=0.5;entryDx=0;entryDy=0;exitX=0;exitY=0.5;exitDx=0;exitDy=0;" edge="1" parent="u8e3plsaaYBApsJ_WjYj-1" source="F9rxLwzg1stIs0CT0WlM-1" target="F9rxLwzg1stIs0CT0WlM-10">
          <mxGeometry width="100" height="100" relative="1" as="geometry">
            <mxPoint x="363.5" y="230" as="sourcePoint"/>
            <mxPoint x="288.5" y="386" as="targetPoint"/>
          </mxGeometry>
        </mxCell>
        <mxCell id="WvTI9kPOI-r7O6_01SwC-2" value="" style="fontSize=12;html=1;endArrow=ERoneToMany;startArrow=ERmandOne;entryX=1;entryY=0.5;entryDx=0;entryDy=0;exitX=0;exitY=0.5;exitDx=0;exitDy=0;edgeStyle=orthogonalEdgeStyle;" edge="1" parent="u8e3plsaaYBApsJ_WjYj-1" source="F9rxLwzg1stIs0CT0WlM-8" target="F9rxLwzg1stIs0CT0WlM-17">
          <mxGeometry width="100" height="100" relative="1" as="geometry">
            <mxPoint x="341.5" y="239" as="sourcePoint"/>
            <mxPoint x="341.5" y="395" as="targetPoint"/>
          </mxGeometry>
        </mxCell>
        <mxCell id="eO6ki24oONc-YyMHAUC3-0" value="" style="edgeStyle=orthogonalEdgeStyle;fontSize=12;html=1;endArrow=ERoneToMany;startArrow=ERmandOne;entryX=0;entryY=0.5;entryDx=0;entryDy=0;exitX=1;exitY=0.5;exitDx=0;exitDy=0;" edge="1" parent="u8e3plsaaYBApsJ_WjYj-1" source="F9rxLwzg1stIs0CT0WlM-1" target="F9rxLwzg1stIs0CT0WlM-31">
          <mxGeometry width="100" height="100" relative="1" as="geometry">
            <mxPoint x="517.5" y="364" as="sourcePoint"/>
            <mxPoint x="552.5" y="520" as="targetPoint"/>
          </mxGeometry>
        </mxCell>
        <mxCell id="eO6ki24oONc-YyMHAUC3-1" value="" style="edgeStyle=orthogonalEdgeStyle;fontSize=12;html=1;endArrow=ERoneToMany;startArrow=ERmandOne;entryX=0;entryY=0.5;entryDx=0;entryDy=0;exitX=1;exitY=0.5;exitDx=0;exitDy=0;" edge="1" parent="u8e3plsaaYBApsJ_WjYj-1" source="EU3e5XZpTHXp0RosWg3A-6" target="eO6ki24oONc-YyMHAUC3-2">
          <mxGeometry width="100" height="100" relative="1" as="geometry">
            <mxPoint x="551.5" y="370" as="sourcePoint"/>
            <mxPoint x="647.5" y="451" as="targetPoint"/>
          </mxGeometry>
        </mxCell>
        <mxCell id="eO6ki24oONc-YyMHAUC3-5" value="" style="edgeStyle=orthogonalEdgeStyle;fontSize=12;html=1;endArrow=ERoneToMany;startArrow=ERmandOne;entryX=0;entryY=0.5;entryDx=0;entryDy=0;exitX=1;exitY=0.5;exitDx=0;exitDy=0;" edge="1" parent="u8e3plsaaYBApsJ_WjYj-1" source="F9rxLwzg1stIs0CT0WlM-1" target="F9rxLwzg1stIs0CT0WlM-24">
          <mxGeometry width="100" height="100" relative="1" as="geometry">
            <mxPoint x="432.5" y="179" as="sourcePoint"/>
            <mxPoint x="552.5" y="422" as="targetPoint"/>
          </mxGeometry>
        </mxCell>
        <mxCell id="eO6ki24oONc-YyMHAUC3-6" value="profile_contact_address" style="swimlane;fontStyle=1;childLayout=stackLayout;horizontal=1;startSize=26;horizontalStack=0;resizeParent=1;resizeLast=0;collapsible=1;marginBottom=0;rounded=0;shadow=0;strokeWidth=1;fillColor=#dae8fc;strokeColor=#6c8ebf;" vertex="1" parent="u8e3plsaaYBApsJ_WjYj-1">
          <mxGeometry x="10" y="440" width="250" height="130" as="geometry">
            <mxRectangle x="260" y="80" width="160" height="26" as="alternateBounds"/>
          </mxGeometry>
        </mxCell>
        <mxCell id="eO6ki24oONc-YyMHAUC3-7" value="profile_contact_address_id" style="shape=partialRectangle;top=0;left=0;right=0;bottom=1;align=left;verticalAlign=top;fillColor=none;spacingLeft=40;spacingRight=4;overflow=hidden;rotatable=0;points=[[0,0.5],[1,0.5]];portConstraint=eastwest;dropTarget=0;rounded=0;shadow=0;strokeWidth=1;fontStyle=4" vertex="1" parent="eO6ki24oONc-YyMHAUC3-6">
          <mxGeometry y="26" width="250" height="26" as="geometry"/>
        </mxCell>
        <mxCell id="eO6ki24oONc-YyMHAUC3-8" value="PK" style="shape=partialRectangle;top=0;left=0;bottom=0;fillColor=none;align=left;verticalAlign=top;spacingLeft=4;spacingRight=4;overflow=hidden;rotatable=0;points=[];portConstraint=eastwest;part=1;" vertex="1" connectable="0" parent="eO6ki24oONc-YyMHAUC3-7">
          <mxGeometry width="36" height="26" as="geometry"/>
        </mxCell>
        <mxCell id="eO6ki24oONc-YyMHAUC3-9" value="profile_contact_address_contact" style="shape=partialRectangle;top=0;left=0;right=0;bottom=0;align=left;verticalAlign=top;fillColor=none;spacingLeft=40;spacingRight=4;overflow=hidden;rotatable=0;points=[[0,0.5],[1,0.5]];portConstraint=eastwest;dropTarget=0;rounded=0;shadow=0;strokeWidth=1;" vertex="1" parent="eO6ki24oONc-YyMHAUC3-6">
          <mxGeometry y="52" width="250" height="26" as="geometry"/>
        </mxCell>
        <mxCell id="eO6ki24oONc-YyMHAUC3-10" value="FK1" style="shape=partialRectangle;top=0;left=0;bottom=0;fillColor=none;align=left;verticalAlign=top;spacingLeft=4;spacingRight=4;overflow=hidden;rotatable=0;points=[];portConstraint=eastwest;part=1;" vertex="1" connectable="0" parent="eO6ki24oONc-YyMHAUC3-9">
          <mxGeometry width="36" height="26" as="geometry"/>
        </mxCell>
        <mxCell id="eO6ki24oONc-YyMHAUC3-11" value="profile_contact_address_address" style="shape=partialRectangle;top=0;left=0;right=0;bottom=0;align=left;verticalAlign=top;fillColor=none;spacingLeft=40;spacingRight=4;overflow=hidden;rotatable=0;points=[[0,0.5],[1,0.5]];portConstraint=eastwest;dropTarget=0;rounded=0;shadow=0;strokeWidth=1;" vertex="1" parent="eO6ki24oONc-YyMHAUC3-6">
          <mxGeometry y="78" width="250" height="26" as="geometry"/>
        </mxCell>
        <mxCell id="eO6ki24oONc-YyMHAUC3-12" value="FK2" style="shape=partialRectangle;top=0;left=0;bottom=0;fillColor=none;align=left;verticalAlign=top;spacingLeft=4;spacingRight=4;overflow=hidden;rotatable=0;points=[];portConstraint=eastwest;part=1;" vertex="1" connectable="0" parent="eO6ki24oONc-YyMHAUC3-11">
          <mxGeometry width="36" height="26" as="geometry"/>
        </mxCell>
        <mxCell id="eO6ki24oONc-YyMHAUC3-13" value="..." style="shape=partialRectangle;top=0;left=0;right=0;bottom=0;align=left;verticalAlign=top;fillColor=none;spacingLeft=40;spacingRight=4;overflow=hidden;rotatable=0;points=[[0,0.5],[1,0.5]];portConstraint=eastwest;dropTarget=0;rounded=0;shadow=0;strokeWidth=1;" vertex="1" parent="eO6ki24oONc-YyMHAUC3-6">
          <mxGeometry y="104" width="250" height="26" as="geometry"/>
        </mxCell>
        <mxCell id="eO6ki24oONc-YyMHAUC3-14" value="" style="shape=partialRectangle;top=0;left=0;bottom=0;fillColor=none;align=left;verticalAlign=top;spacingLeft=4;spacingRight=4;overflow=hidden;rotatable=0;points=[];portConstraint=eastwest;part=1;" vertex="1" connectable="0" parent="eO6ki24oONc-YyMHAUC3-13">
          <mxGeometry width="36" height="26" as="geometry"/>
        </mxCell>
        <mxCell id="eO6ki24oONc-YyMHAUC3-15" value="" style="fontSize=12;html=1;endArrow=ERoneToMany;startArrow=ERmandOne;entryX=1;entryY=0.5;entryDx=0;entryDy=0;exitX=0;exitY=0.5;exitDx=0;exitDy=0;edgeStyle=orthogonalEdgeStyle;" edge="1" parent="u8e3plsaaYBApsJ_WjYj-1" source="F9rxLwzg1stIs0CT0WlM-8" target="eO6ki24oONc-YyMHAUC3-9">
          <mxGeometry width="100" height="100" relative="1" as="geometry">
            <mxPoint x="373.5" y="438" as="sourcePoint"/>
            <mxPoint x="294.5" y="454" as="targetPoint"/>
          </mxGeometry>
        </mxCell>
        <mxCell id="eO6ki24oONc-YyMHAUC3-16" value="" style="edgeStyle=orthogonalEdgeStyle;fontSize=12;html=1;endArrow=ERoneToMany;startArrow=ERmandOne;entryX=1;entryY=0.5;entryDx=0;entryDy=0;exitX=0;exitY=0.5;exitDx=0;exitDy=0;" edge="1" parent="u8e3plsaaYBApsJ_WjYj-1" source="EU3e5XZpTHXp0RosWg3A-6" target="eO6ki24oONc-YyMHAUC3-11">
          <mxGeometry width="100" height="100" relative="1" as="geometry">
            <mxPoint x="170" y="694" as="sourcePoint"/>
            <mxPoint x="365" y="570" as="targetPoint"/>
          </mxGeometry>
        </mxCell>
        <mxCell id="eO6ki24oONc-YyMHAUC3-19" value="media" style="swimlane;fontStyle=1;childLayout=stackLayout;horizontal=1;startSize=26;horizontalStack=0;resizeParent=1;resizeLast=0;collapsible=1;marginBottom=0;rounded=0;shadow=0;strokeWidth=1;fillColor=#fff2cc;strokeColor=#d6b656;" vertex="1" parent="u8e3plsaaYBApsJ_WjYj-1">
          <mxGeometry x="100" y="220" width="160" height="78" as="geometry">
            <mxRectangle x="20" y="80" width="160" height="26" as="alternateBounds"/>
          </mxGeometry>
        </mxCell>
        <mxCell id="eO6ki24oONc-YyMHAUC3-20" value="media_id" style="shape=partialRectangle;top=0;left=0;right=0;bottom=1;align=left;verticalAlign=top;fillColor=none;spacingLeft=40;spacingRight=4;overflow=hidden;rotatable=0;points=[[0,0.5],[1,0.5]];portConstraint=eastwest;dropTarget=0;rounded=0;shadow=0;strokeWidth=1;fontStyle=4" vertex="1" parent="eO6ki24oONc-YyMHAUC3-19">
          <mxGeometry y="26" width="160" height="26" as="geometry"/>
        </mxCell>
        <mxCell id="eO6ki24oONc-YyMHAUC3-21" value="PK" style="shape=partialRectangle;top=0;left=0;bottom=0;fillColor=none;align=left;verticalAlign=top;spacingLeft=4;spacingRight=4;overflow=hidden;rotatable=0;points=[];portConstraint=eastwest;part=1;" vertex="1" connectable="0" parent="eO6ki24oONc-YyMHAUC3-20">
          <mxGeometry width="36" height="26" as="geometry"/>
        </mxCell>
        <mxCell id="eO6ki24oONc-YyMHAUC3-22" value="..." style="shape=partialRectangle;top=0;left=0;right=0;bottom=0;align=left;verticalAlign=top;fillColor=none;spacingLeft=40;spacingRight=4;overflow=hidden;rotatable=0;points=[[0,0.5],[1,0.5]];portConstraint=eastwest;dropTarget=0;rounded=0;shadow=0;strokeWidth=1;" vertex="1" parent="eO6ki24oONc-YyMHAUC3-19">
          <mxGeometry y="52" width="160" height="26" as="geometry"/>
        </mxCell>
        <mxCell id="eO6ki24oONc-YyMHAUC3-23" value="" style="shape=partialRectangle;top=0;left=0;bottom=0;fillColor=none;align=left;verticalAlign=top;spacingLeft=4;spacingRight=4;overflow=hidden;rotatable=0;points=[];portConstraint=eastwest;part=1;" vertex="1" connectable="0" parent="eO6ki24oONc-YyMHAUC3-22">
          <mxGeometry width="36" height="26" as="geometry"/>
        </mxCell>
        <mxCell id="ot_Ls4YMLi8CQPtrHxKa-0" value="" style="edgeStyle=orthogonalEdgeStyle;fontSize=12;html=1;endArrow=ERzeroToOne;startArrow=ERmandOne;exitX=1;exitY=0.5;exitDx=0;exitDy=0;entryX=0;entryY=0.5;entryDx=0;entryDy=0;" edge="1" parent="u8e3plsaaYBApsJ_WjYj-1" source="eO6ki24oONc-YyMHAUC3-19" target="eO6ki24oONc-YyMHAUC3-17">
          <mxGeometry width="100" height="100" relative="1" as="geometry">
            <mxPoint x="160" y="268" as="sourcePoint"/>
            <mxPoint x="240" y="270" as="targetPoint"/>
          </mxGeometry>
        </mxCell>
        <mxCell id="ot_Ls4YMLi8CQPtrHxKa-1" value="Media Module" style="rounded=0;whiteSpace=wrap;html=1;fillColor=#fff2cc;strokeColor=#d6b656;" vertex="1" parent="u8e3plsaaYBApsJ_WjYj-1">
          <mxGeometry x="730" y="650" width="120" height="40" as="geometry"/>
        </mxCell>
      </root>
    </mxGraphModel>
  </diagram>
  <diagram id="70UEpnRuQuKvCPdzyNs2" name="organization">
    <mxGraphModel dx="2062" dy="781" grid="1" gridSize="10" guides="1" tooltips="1" connect="1" arrows="1" fold="1" page="1" pageScale="1" pageWidth="850" pageHeight="1100" math="0" shadow="0">
      <root>
        <mxCell id="uXGudVJk8gQIH58cNROY-0"/>
        <mxCell id="uXGudVJk8gQIH58cNROY-1" parent="uXGudVJk8gQIH58cNROY-0"/>
      </root>
    </mxGraphModel>
  </diagram>
  <diagram id="BwD39M97FNiwTT4-_-SV" name="media">
    <mxGraphModel dx="2062" dy="781" grid="1" gridSize="10" guides="1" tooltips="1" connect="1" arrows="1" fold="1" page="1" pageScale="1" pageWidth="850" pageHeight="1100" math="0" shadow="0">
      <root>
        <mxCell id="s11yps7_s-NIY7aeb90v-0"/>
        <mxCell id="s11yps7_s-NIY7aeb90v-1" parent="s11yps7_s-NIY7aeb90v-0"/>
      </root>
    </mxGraphModel>
  </diagram>
  <diagram id="nWy9VSnpbCTO4DazG0lL" name="tasks">
    <mxGraphModel dx="2062" dy="781" grid="1" gridSize="10" guides="1" tooltips="1" connect="1" arrows="1" fold="1" page="1" pageScale="1" pageWidth="850" pageHeight="1100" math="0" shadow="0">
      <root>
        <mxCell id="sNchw09S2537KrUUf2fU-0"/>
        <mxCell id="sNchw09S2537KrUUf2fU-1" parent="sNchw09S2537KrUUf2fU-0"/>
      </root>
    </mxGraphModel>
  </diagram>
  <diagram id="zaCojHZ2IOHm8MMRpcbE" name="news">
    <mxGraphModel dx="2062" dy="781" grid="1" gridSize="10" guides="1" tooltips="1" connect="1" arrows="1" fold="1" page="1" pageScale="1" pageWidth="850" pageHeight="1100" math="0" shadow="0">
      <root>
        <mxCell id="TIFQ32gUccWzYABgOKoY-0"/>
        <mxCell id="TIFQ32gUccWzYABgOKoY-1" parent="TIFQ32gUccWzYABgOKoY-0"/>
      </root>
    </mxGraphModel>
  </diagram>
</mxfile>
